<?xml version="1.0" encoding="UTF-8" standalone="no"?>
<!-- Created with Inkscape (http://www.inkscape.org/) -->

<svg
   xmlns:dc="http://purl.org/dc/elements/1.1/"
   xmlns:cc="http://creativecommons.org/ns#"
   xmlns:rdf="http://www.w3.org/1999/02/22-rdf-syntax-ns#"
   xmlns:svg="http://www.w3.org/2000/svg"
   xmlns="http://www.w3.org/2000/svg"
   xmlns:sodipodi="http://sodipodi.sourceforge.net/DTD/sodipodi-0.dtd"
   xmlns:inkscape="http://www.inkscape.org/namespaces/inkscape"
   width="566.15515"
   height="280.39456"
   id="svg8410"
   version="1.1"
   inkscape:version="0.48.5 r10040"
   sodipodi:docname="boot_diagram.svg">
  <defs
     id="defs8412">
    <marker
       inkscape:stockid="Arrow1Lend"
       orient="auto"
       refY="0"
       refX="0"
       id="Arrow1Lend"
       style="overflow:visible">
      <path
         id="path4114"
         d="M 0,0 5,-5 -12.5,0 5,5 0,0 z"
         style="fill-rule:evenodd;stroke:#000000;stroke-width:1pt"
         transform="matrix(-0.8,0,0,-0.8,-10,0)"
         inkscape:connector-curvature="0" />
    </marker>
    <marker
       inkscape:stockid="Arrow1Lend"
       orient="auto"
       refY="0"
       refX="0"
       id="Arrow1Lend-6"
       style="overflow:visible">
      <path
         inkscape:connector-curvature="0"
         id="path4114-1"
         d="M 0,0 5,-5 -12.5,0 5,5 0,0 z"
         style="fill-rule:evenodd;stroke:#000000;stroke-width:1pt"
         transform="matrix(-0.8,0,0,-0.8,-10,0)" />
    </marker>
    <marker
       inkscape:stockid="Arrow1Lend"
       orient="auto"
       refY="0"
       refX="0"
       id="Arrow1Lend-64"
       style="overflow:visible">
      <path
         inkscape:connector-curvature="0"
         id="path4114-16"
         d="M 0,0 5,-5 -12.5,0 5,5 0,0 z"
         style="fill-rule:evenodd;stroke:#000000;stroke-width:1pt"
         transform="matrix(-0.8,0,0,-0.8,-10,0)" />
    </marker>
  </defs>
  <sodipodi:namedview
     id="base"
     pagecolor="#ffffff"
     bordercolor="#666666"
     borderopacity="1.0"
     inkscape:pageopacity="0.0"
     inkscape:pageshadow="2"
     inkscape:zoom="1.4"
     inkscape:cx="382.51014"
     inkscape:cy="197.95994"
     inkscape:document-units="px"
     inkscape:current-layer="layer1"
     showgrid="false"
     fit-margin-bottom="1"
     units="cm"
     fit-margin-top="1"
     fit-margin-left="0"
     fit-margin-right="0"
     inkscape:window-width="1364"
     inkscape:window-height="747"
     inkscape:window-x="0"
     inkscape:window-y="19"
     inkscape:window-maximized="0" />
  <metadata
     id="metadata8415">
    <rdf:RDF>
      <cc:Work
         rdf:about="">
        <dc:format>image/svg+xml</dc:format>
        <dc:type
           rdf:resource="http://purl.org/dc/dcmitype/StillImage" />
        <dc:title></dc:title>
      </cc:Work>
    </rdf:RDF>
  </metadata>
  <g
     inkscape:label="Layer 1"
     inkscape:groupmode="layer"
     id="layer1"
     transform="translate(-21.835937,-56.538494)">
    <g
       style="font-size:40px;font-style:normal;font-weight:normal;text-align:center;line-height:125%;letter-spacing:0px;word-spacing:0px;text-anchor:middle;fill:#000000;fill-opacity:1;stroke:none;font-family:Sans"
       id="text8418">
      <path
         d="m 37.675781,111.44422 c -1.9e-5,-2.64321 -0.546894,-4.71352 -1.640625,-6.21094 -1.080746,-1.51039 -2.57163,-2.2656 -4.472656,-2.26562 -1.901053,2e-5 -3.398447,0.75523 -4.492188,2.26562 -1.080736,1.49742 -1.6211,3.56773 -1.621093,6.21094 -7e-6,2.64324 0.540357,4.72006 1.621093,6.23047 1.093741,1.4974 2.591135,2.2461 4.492188,2.24609 1.901026,1e-5 3.39191,-0.74869 4.472656,-2.24609 1.093731,-1.51041 1.640606,-3.58723 1.640625,-6.23047 M 25.449219,103.8075 c 0.7552,-1.30206 1.70572,-2.2656 2.851562,-2.89062 1.158843,-0.638 2.53905,-0.957011 4.140625,-0.957034 2.656233,2.3e-5 4.811179,1.054714 6.464844,3.164064 1.666644,2.10939 2.499977,4.88283 2.5,8.32031 -2.3e-5,3.43751 -0.833356,6.21094 -2.5,8.32031 -1.653665,2.10938 -3.808611,3.16407 -6.464844,3.16407 -1.601575,0 -2.981782,-0.3125 -4.140625,-0.9375 -1.145842,-0.63802 -2.096362,-1.60807 -2.851562,-2.91016 l 0,3.28125 -3.613282,0 0,-30.390625 3.613282,0 0,11.835935"
         style=""
         id="path9434" />
      <path
         d="m 55.839844,103.00672 c -1.927094,2e-5 -3.45053,0.75523 -4.570313,2.26563 -1.119798,1.49741 -1.679693,3.5547 -1.679687,6.17187 -6e-6,2.6172 0.553379,4.681 1.660156,6.19141 1.119783,1.4974 2.649729,2.24609 4.589844,2.24609 1.914048,0 3.430974,-0.7552 4.550781,-2.26562 1.119774,-1.51041 1.679669,-3.5677 1.679687,-6.17188 -1.8e-5,-2.59113 -0.559913,-4.64191 -1.679687,-6.15234 -1.119807,-1.52342 -2.636733,-2.28514 -4.550781,-2.28516 m 0,-3.046874 c 3.124984,2.3e-5 5.579409,1.015644 7.363281,3.046874 1.783833,2.03127 2.675759,4.84377 2.675781,8.4375 -2.2e-5,3.58074 -0.891948,6.39324 -2.675781,8.4375 -1.783872,2.03125 -4.238297,3.04688 -7.363281,3.04688 -3.13803,0 -5.598965,-1.01563 -7.382813,-3.04688 -1.770836,-2.04426 -2.656252,-4.85676 -2.65625,-8.4375 -2e-6,-3.59373 0.885414,-6.40623 2.65625,-8.4375 1.783848,-2.03123 4.244783,-3.046851 7.382813,-3.046874"
         style=""
         id="path9436" />
      <path
         d="m 80.292969,103.00672 c -1.927094,2e-5 -3.45053,0.75523 -4.570313,2.26563 -1.119798,1.49741 -1.679693,3.5547 -1.679687,6.17187 -6e-6,2.6172 0.553379,4.681 1.660156,6.19141 1.119783,1.4974 2.649729,2.24609 4.589844,2.24609 1.914048,0 3.430974,-0.7552 4.550781,-2.26562 1.119774,-1.51041 1.679669,-3.5677 1.679687,-6.17188 -1.8e-5,-2.59113 -0.559913,-4.64191 -1.679687,-6.15234 -1.119807,-1.52342 -2.636733,-2.28514 -4.550781,-2.28516 m 0,-3.046874 c 3.124984,2.3e-5 5.579409,1.015644 7.363281,3.046874 1.783833,2.03127 2.675759,4.84377 2.675781,8.4375 -2.2e-5,3.58074 -0.891948,6.39324 -2.675781,8.4375 -1.783872,2.03125 -4.238297,3.04688 -7.363281,3.04688 -3.13803,0 -5.598965,-1.01563 -7.382813,-3.04688 -1.770836,-2.04426 -2.656252,-4.85676 -2.65625,-8.4375 -2e-6,-3.59373 0.885414,-6.40623 2.65625,-8.4375 1.783848,-2.03123 4.244783,-3.046851 7.382813,-3.046874"
         style=""
         id="path9438" />
      <path
         d="m 99.824219,94.276253 0,6.210937 7.402341,0 0,2.79297 -7.402341,0 0,11.875 c -8e-6,1.78386 0.240881,2.92969 0.722661,3.4375 0.49478,0.50781 1.49087,0.76172 2.98828,0.76172 l 3.6914,0 0,3.00781 -3.6914,0 c -2.77345,0 -4.68751,-0.51432 -5.742191,-1.54297 -1.054692,-1.04166 -1.582035,-2.92968 -1.582032,-5.66406 l 0,-11.875 -2.636718,0 0,-2.79297 2.636718,0 0,-6.210937 3.613282,0"
         style=""
         id="path9440" />
      <path
         d="m 112.48047,117.40125 4.12109,0 0,4.96094 -4.12109,0 0,-4.96094"
         style=""
         id="path9442" />
      <path
         d="m 138.65234,101.13172 0,3.39844 c -1.01564,-0.52082 -2.07032,-0.91144 -3.16406,-1.17188 -1.09376,-0.26039 -2.22657,-0.3906 -3.39844,-0.39062 -1.78386,2e-5 -3.125,0.27346 -4.02343,0.82031 -0.88543,0.54689 -1.32813,1.36721 -1.32813,2.46094 0,0.83335 0.31901,1.4909 0.95703,1.97266 0.63802,0.46876 1.92057,0.91798 3.84766,1.34765 l 1.23047,0.27344 c 2.55207,0.54689 4.36196,1.32162 5.42968,2.32422 1.08072,0.98959 1.62108,2.37631 1.6211,4.16015 -2e-5,2.03126 -0.80731,3.63933 -2.42188,4.82422 -1.60157,1.1849 -3.8086,1.77735 -6.62109,1.77735 -1.17188,0 -2.39584,-0.11719 -3.67187,-0.35157 -1.26303,-0.22135 -2.59766,-0.55989 -4.00391,-1.01562 l 0,-3.71094 c 1.32812,0.69011 2.63671,1.21094 3.92578,1.5625 1.28906,0.33855 2.5651,0.50782 3.82812,0.50781 1.6927,1e-5 2.99478,-0.28645 3.90625,-0.85937 0.91145,-0.58593 1.36718,-1.40625 1.36719,-2.46094 -1e-5,-0.97655 -0.33204,-1.72525 -0.99609,-2.24609 -0.65106,-0.52083 -2.08986,-1.02213 -4.31641,-1.50391 l -1.25,-0.29297 c -2.22657,-0.46874 -3.83464,-1.18488 -4.82422,-2.14843 -0.98958,-0.97655 -1.48437,-2.31119 -1.48437,-4.00391 0,-2.05727 0.72916,-3.64581 2.1875,-4.76563 1.45833,-1.11977 3.52864,-1.679661 6.21094,-1.679684 1.32811,2.3e-5 2.57811,0.09768 3.75,0.292974 1.17186,0.19533 2.25258,0.4883 3.24218,0.8789"
         style=""
         id="path9444" />
    </g>
    <g
       style="font-size:40px;font-style:normal;font-weight:normal;text-align:center;line-height:125%;letter-spacing:0px;word-spacing:0px;text-anchor:middle;fill:#000000;fill-opacity:1;stroke:none;font-family:Sans"
       id="text8422">
      <path
         d="m 101.91966,146.25731 3.61328,0 0,17.94922 10.72266,-9.4336 4.58984,0 -11.60156,10.23438 12.08984,11.64062 -4.6875,0 -11.11328,-10.68359 0,10.68359 -3.61328,0 0,-30.39062"
         style=""
         id="path9409" />
      <path
         d="m 142.56419,164.812 0,1.75781 -16.52343,0 c 0.15624,2.47396 0.89843,4.36198 2.22656,5.66406 1.34114,1.28907 3.20311,1.9336 5.58594,1.9336 1.38019,0 2.71482,-0.16927 4.0039,-0.50782 1.30207,-0.33854 2.59113,-0.84635 3.86719,-1.52343 l 0,3.39843 c -1.28908,0.54688 -2.6107,0.96354 -3.96484,1.25 -1.35419,0.28646 -2.72788,0.42969 -4.1211,0.42969 -3.48959,0 -6.25652,-1.01562 -8.30078,-3.04687 -2.03125,-2.03125 -3.04688,-4.77864 -3.04687,-8.24219 -1e-5,-3.58072 0.96353,-6.41926 2.89062,-8.51563 1.9401,-2.10935 4.55077,-3.16404 7.83203,-3.16406 2.94269,2e-5 5.26691,0.95054 6.97266,2.85156 1.71873,1.88804 2.5781,4.45965 2.57812,7.71485 m -3.59375,-1.05469 c -0.0261,-1.96613 -0.57944,-3.53514 -1.66015,-4.70703 -1.06773,-1.17186 -2.487,-1.7578 -4.25782,-1.75781 -2.00521,1e-5 -3.61329,0.56642 -4.82421,1.69921 -1.19793,1.13283 -1.88803,2.72788 -2.07032,4.78516 l 12.8125,-0.0195"
         style=""
         id="path9411" />
      <path
         d="m 161.13841,158.13231 c -0.40366,-0.23436 -0.84637,-0.40363 -1.32812,-0.50781 -0.46877,-0.11717 -0.9896,-0.17577 -1.5625,-0.17578 -2.03126,1e-5 -3.59376,0.66408 -4.6875,1.99218 -1.08074,1.31512 -1.6211,3.20965 -1.6211,5.6836 l 0,11.52343 -3.61328,0 0,-21.875 3.61328,0 0,3.39844 c 0.7552,-1.3281 1.73828,-2.31118 2.94922,-2.94922 1.21093,-0.65102 2.68228,-0.97654 4.41406,-0.97656 0.24739,2e-5 0.52082,0.0196 0.82032,0.0586 0.29946,0.0261 0.63149,0.0716 0.99609,0.13672 l 0.0195,3.69141"
         style=""
         id="path9413" />
      <path
         d="m 182.42747,163.44481 0,13.20312 -3.59375,0 0,-13.08593 c -1e-5,-2.0703 -0.40366,-3.61978 -1.21093,-4.64844 -0.80731,-1.02863 -2.01825,-1.54295 -3.63282,-1.54297 -1.94011,2e-5 -3.47006,0.61851 -4.58984,1.85547 -1.1198,1.23699 -1.67969,2.92319 -1.67969,5.05859 l 0,12.36328 -3.61328,0 0,-21.875 3.61328,0 0,3.39844 c 0.85937,-1.31508 1.86848,-2.29815 3.02735,-2.94922 1.17186,-0.65102 2.51952,-0.97654 4.04297,-0.97656 2.513,2e-5 4.41404,0.78127 5.70312,2.34375 1.28904,1.5495 1.93357,3.83465 1.93359,6.85547"
         style=""
         id="path9415" />
      <path
         d="m 208.34544,164.812 0,1.75781 -16.52343,0 c 0.15624,2.47396 0.89843,4.36198 2.22656,5.66406 1.34114,1.28907 3.20311,1.9336 5.58594,1.9336 1.38019,0 2.71482,-0.16927 4.0039,-0.50782 1.30207,-0.33854 2.59113,-0.84635 3.86719,-1.52343 l 0,3.39843 c -1.28908,0.54688 -2.6107,0.96354 -3.96484,1.25 -1.35419,0.28646 -2.72788,0.42969 -4.1211,0.42969 -3.48959,0 -6.25652,-1.01562 -8.30078,-3.04687 -2.03125,-2.03125 -3.04688,-4.77864 -3.04687,-8.24219 -1e-5,-3.58072 0.96353,-6.41926 2.89062,-8.51563 1.9401,-2.10935 4.55077,-3.16404 7.83203,-3.16406 2.94269,2e-5 5.26691,0.95054 6.97266,2.85156 1.71873,1.88804 2.5781,4.45965 2.57812,7.71485 m -3.59375,-1.05469 c -0.0261,-1.96613 -0.57944,-3.53514 -1.66015,-4.70703 -1.06773,-1.17186 -2.487,-1.7578 -4.25782,-1.75781 -2.00521,1e-5 -3.61329,0.56642 -4.82421,1.69921 -1.19793,1.13283 -1.88803,2.72788 -2.07032,4.78516 l 12.8125,-0.0195"
         style=""
         id="path9417" />
      <path
         d="m 214.24388,146.25731 3.59375,0 0,30.39062 -3.59375,0 0,-30.39062"
         style=""
         id="path9419" />
      <path
         d="m 241.95872,183.28856 0,2.79297 -20.78125,0 0,-2.79297 20.78125,0"
         style=""
         id="path9421" />
      <path
         d="m 264.04857,164.812 0,1.75781 -16.52344,0 c 0.15625,2.47396 0.89843,4.36198 2.22656,5.66406 1.34114,1.28907 3.20312,1.9336 5.58594,1.9336 1.38019,0 2.71483,-0.16927 4.00391,-0.50782 1.30206,-0.33854 2.59112,-0.84635 3.86718,-1.52343 l 0,3.39843 c -1.28908,0.54688 -2.61069,0.96354 -3.96484,1.25 -1.35418,0.28646 -2.72788,0.42969 -4.12109,0.42969 -3.4896,0 -6.25652,-1.01562 -8.30078,-3.04687 -2.03126,-2.03125 -3.04688,-4.77864 -3.04688,-8.24219 0,-3.58072 0.96354,-6.41926 2.89063,-8.51563 1.94009,-2.10935 4.55077,-3.16404 7.83203,-3.16406 2.94269,2e-5 5.26691,0.95054 6.97265,2.85156 1.71873,1.88804 2.57811,4.45965 2.57813,7.71485 m -3.59375,-1.05469 c -0.0261,-1.96613 -0.57945,-3.53514 -1.66016,-4.70703 -1.06772,-1.17186 -2.48699,-1.7578 -4.25781,-1.75781 -2.00522,1e-5 -3.61329,0.56642 -4.82422,1.69921 -1.19792,1.13283 -1.88803,2.72788 -2.07031,4.78516 l 12.8125,-0.0195"
         style=""
         id="path9423" />
      <path
         d="m 288.1306,163.44481 0,13.20312 -3.59375,0 0,-13.08593 c -2e-5,-2.0703 -0.40366,-3.61978 -1.21094,-4.64844 -0.80731,-1.02863 -2.01824,-1.54295 -3.63281,-1.54297 -1.94012,2e-5 -3.47006,0.61851 -4.58984,1.85547 -1.1198,1.23699 -1.6797,2.92319 -1.67969,5.05859 l 0,12.36328 -3.61328,0 0,-21.875 3.61328,0 0,3.39844 c 0.85937,-1.31508 1.86848,-2.29815 3.02734,-2.94922 1.17187,-0.65102 2.51952,-0.97654 4.04297,-0.97656 2.51301,2e-5 4.41404,0.78127 5.70313,2.34375 1.28904,1.5495 1.93357,3.83465 1.93359,6.85547"
         style=""
         id="path9425" />
      <path
         d="m 298.89232,148.562 0,6.21093 7.40234,0 0,2.79297 -7.40234,0 0,11.875 c -10e-6,1.78386 0.24088,2.92969 0.72265,3.4375 0.49479,0.50782 1.49088,0.76172 2.98829,0.76172 l 3.6914,0 0,3.00781 -3.6914,0 c -2.77345,0 -4.68751,-0.51432 -5.74219,-1.54296 -1.05469,-1.04167 -1.58204,-2.92969 -1.58203,-5.66407 l 0,-11.875 -2.63672,0 0,-2.79297 2.63672,0 0,-6.21093 3.61328,0"
         style=""
         id="path9427" />
      <path
         d="m 323.71654,158.13231 c -0.40366,-0.23436 -0.84637,-0.40363 -1.32813,-0.50781 -0.46876,-0.11717 -0.98959,-0.17577 -1.5625,-0.17578 -2.03126,1e-5 -3.59376,0.66408 -4.6875,1.99218 -1.08073,1.31512 -1.6211,3.20965 -1.62109,5.6836 l 0,11.52343 -3.61328,0 0,-21.875 3.61328,0 0,3.39844 c 0.7552,-1.3281 1.73827,-2.31118 2.94922,-2.94922 1.21092,-0.65102 2.68228,-0.97654 4.41406,-0.97656 0.24738,2e-5 0.52082,0.0196 0.82031,0.0586 0.29947,0.0261 0.6315,0.0716 0.9961,0.13672 l 0.0195,3.69141"
         style=""
         id="path9429" />
      <path
         d="m 336.62669,178.67918 c -1.01563,2.60417 -2.00522,4.30338 -2.96875,5.09766 -0.96355,0.79426 -2.25261,1.1914 -3.86718,1.19141 l -2.8711,0 0,-3.00782 2.10938,0 c 0.98957,0 1.7578,-0.23438 2.30468,-0.70312 0.54687,-0.46876 1.15234,-1.57552 1.81641,-3.32031 l 0.64453,-1.64063 -8.84765,-21.52344 3.80859,0 6.83594,17.10938 6.83593,-17.10938 3.8086,0 -9.60938,23.90625"
         style=""
         id="path9431" />
    </g>
    <g
       style="font-size:40px;font-style:normal;font-weight:normal;text-align:center;line-height:125%;letter-spacing:0px;word-spacing:0px;text-anchor:middle;fill:#000000;fill-opacity:1;stroke:none;font-family:Sans"
       id="text8426">
      <path
         d="m 357.74554,210.543 3.61329,0 0,17.94922 10.72265,-9.4336 4.58985,0 -11.60157,10.23438 12.08985,11.64062 -4.6875,0 -11.11328,-10.68359 0,10.68359 -3.61329,0 0,-30.39062"
         style=""
         id="path9398" />
      <path
         d="m 398.11664,223.25784 c 0.89841,-1.61456 1.97263,-2.80597 3.22265,-3.57422 1.24998,-0.7682 2.72133,-1.15232 4.41407,-1.15234 2.27861,2e-5 4.03642,0.8008 5.27343,2.40234 1.23695,1.58856 1.85544,3.85419 1.85547,6.79688 l 0,13.20312 -3.61328,0 0,-13.08593 c -3e-5,-2.09634 -0.37112,-3.65233 -1.11328,-4.66797 -0.74222,-1.01561 -1.87503,-1.52342 -3.39844,-1.52344 -1.862,2e-5 -3.33335,0.61851 -4.41406,1.85547 -1.08075,1.23699 -1.62111,2.92319 -1.62109,5.05859 l 0,12.36328 -3.61328,0 0,-13.08593 c -2e-5,-2.10936 -0.37112,-3.66535 -1.11329,-4.66797 -0.7422,-1.01561 -1.88803,-1.52342 -3.4375,-1.52344 -1.83594,2e-5 -3.29428,0.62502 -4.375,1.875 -1.08073,1.237 -1.6211,2.91668 -1.62109,5.03906 l 0,12.36328 -3.61328,0 0,-21.875 3.61328,0 0,3.39844 c 0.82031,-1.34112 1.80338,-2.33071 2.94922,-2.96875 1.14582,-0.638 2.5065,-0.95701 4.08203,-0.95703 1.58853,2e-5 2.93618,0.40367 4.04297,1.21094 1.11977,0.80731 1.94659,1.97918 2.48047,3.51562"
         style=""
         id="path9400" />
      <path
         d="m 430.01117,229.93753 c -2.90366,1e-5 -4.91537,0.33204 -6.03516,0.99609 -1.1198,0.66408 -1.67969,1.79689 -1.67968,3.39844 -1e-5,1.27605 0.41666,2.29167 1.25,3.04688 0.84634,0.74219 1.99217,1.11328 3.4375,1.11328 1.99217,0 3.58722,-0.70312 4.78515,-2.10938 1.21092,-1.41926 1.81639,-3.30077 1.81641,-5.64453 l 0,-0.80078 -3.57422,0 m 7.16797,-1.48437 0,12.48046 -3.59375,0 0,-3.32031 c -0.82033,1.32813 -1.84247,2.3112 -3.06641,2.94922 -1.22397,0.625 -2.72136,0.9375 -4.49219,0.9375 -2.23959,0 -4.02344,-0.625 -5.35156,-1.875 -1.31511,-1.26302 -1.97266,-2.94921 -1.97265,-5.05859 -1e-5,-2.46093 0.8203,-4.3164 2.46093,-5.56641 1.65364,-1.24999 4.11458,-1.87499 7.38282,-1.875 l 5.03906,0 0,-0.35156 c -2e-5,-1.65363 -0.54689,-2.92967 -1.64063,-3.82813 -1.08074,-0.91144 -2.60418,-1.36717 -4.57031,-1.36718 -1.25001,1e-5 -2.46746,0.14975 -3.65234,0.44921 -1.18491,0.2995 -2.32423,0.74872 -3.41797,1.34766 l 0,-3.32031 c 1.3151,-0.50779 2.59114,-0.8854 3.82812,-1.13281 1.23697,-0.2604 2.4414,-0.39061 3.61328,-0.39063 3.16405,2e-5 5.52733,0.82033 7.08985,2.46094 1.56248,1.64064 2.34373,4.12762 2.34375,7.46094"
         style=""
         id="path9402" />
      <path
         d="m 444.60101,219.05862 3.59375,0 0,21.875 -3.59375,0 0,-21.875 m 0,-8.51562 3.59375,0 0,4.55078 -3.59375,0 0,-4.55078"
         style=""
         id="path9404" />
      <path
         d="m 473.87836,227.7305 0,13.20312 -3.59375,0 0,-13.08593 c -2e-5,-2.0703 -0.40367,-3.61978 -1.21094,-4.64844 -0.80731,-1.02863 -2.01824,-1.54295 -3.63281,-1.54297 -1.94012,2e-5 -3.47007,0.61851 -4.58985,1.85547 -1.1198,1.23699 -1.67969,2.92319 -1.67968,5.05859 l 0,12.36328 -3.61329,0 0,-21.875 3.61329,0 0,3.39844 c 0.85936,-1.31508 1.86848,-2.29815 3.02734,-2.94922 1.17186,-0.65102 2.51952,-0.97654 4.04297,-0.97656 2.513,2e-5 4.41404,0.78127 5.70312,2.34375 1.28904,1.5495 1.93357,3.83465 1.9336,6.85547"
         style=""
         id="path9406" />
    </g>
    <g
       style="font-size:40px;font-style:normal;font-weight:normal;text-align:center;line-height:125%;letter-spacing:0px;word-spacing:0px;text-anchor:middle;fill:#000000;fill-opacity:1;stroke:none;font-family:Sans"
       id="text8430">
      <path
         d="m 512.22937,283.25781 c 0.89842,-1.61456 1.97263,-2.80597 3.22266,-3.57422 1.24997,-0.7682 2.72132,-1.15232 4.41406,-1.15234 2.27861,2e-5 4.03642,0.8008 5.27344,2.40234 1.23694,1.58856 1.85543,3.85419 1.85547,6.79688 l 0,13.20312 -3.61329,0 0,-13.08593 c -3e-5,-2.09634 -0.37112,-3.65233 -1.11328,-4.66797 -0.74221,-1.01561 -1.87503,-1.52342 -3.39843,-1.52344 -1.86201,2e-5 -3.33336,0.61851 -4.41407,1.85547 -1.08075,1.23699 -1.62111,2.92319 -1.62109,5.05859 l 0,12.36328 -3.61328,0 0,-13.08593 c -2e-5,-2.10936 -0.37111,-3.66535 -1.11328,-4.66797 -0.74221,-1.01561 -1.88804,-1.52342 -3.4375,-1.52344 -1.83595,2e-5 -3.29428,0.62502 -4.375,1.875 -1.08074,1.237 -1.6211,2.91668 -1.6211,5.03906 l 0,12.36328 -3.61328,0 0,-21.875 3.61328,0 0,3.39844 c 0.82031,-1.34112 1.80338,-2.33071 2.94922,-2.96875 1.14582,-0.638 2.5065,-0.95701 4.08203,-0.95703 1.58853,2e-5 2.93618,0.40367 4.04297,1.21094 1.11977,0.80731 1.9466,1.97918 2.48047,3.51562"
         style=""
         id="path9389" />
      <path
         d="m 544.1239,289.9375 c -2.90366,10e-6 -4.91537,0.33204 -6.03515,0.99609 -1.1198,0.66408 -1.6797,1.79689 -1.67969,3.39844 -10e-6,1.27605 0.41666,2.29167 1.25,3.04688 0.84634,0.74219 1.99218,1.11328 3.4375,1.11328 1.99217,0 3.58722,-0.70312 4.78515,-2.10938 1.21092,-1.41926 1.81639,-3.30077 1.81641,-5.64453 l 0,-0.80078 -3.57422,0 m 7.16797,-1.48438 0,12.48047 -3.59375,0 0,-3.32031 c -0.82033,1.32813 -1.84246,2.3112 -3.06641,2.94922 -1.22397,0.625 -2.72136,0.9375 -4.49218,0.9375 -2.23959,0 -4.02345,-0.625 -5.35157,-1.875 -1.3151,-1.26302 -1.97265,-2.94921 -1.97265,-5.05859 0,-2.46093 0.82031,-4.3164 2.46094,-5.56641 1.65363,-1.24999 4.11457,-1.87499 7.38281,-1.875 l 5.03906,0 0,-0.35156 c -2e-5,-1.65363 -0.54689,-2.92967 -1.64062,-3.82813 -1.08075,-0.91144 -2.60418,-1.36717 -4.57032,-1.36719 -1.25001,2e-5 -2.46745,0.14976 -3.65234,0.44922 -1.1849,0.2995 -2.32422,0.74872 -3.41797,1.34766 l 0,-3.32031 c 1.3151,-0.50779 2.59114,-0.8854 3.82813,-1.13282 1.23697,-0.26039 2.44139,-0.3906 3.61328,-0.39062 3.16404,2e-5 5.52732,0.82033 7.08984,2.46094 1.56248,1.64064 2.34373,4.12762 2.34375,7.46093"
         style=""
         id="path9391" />
      <path
         d="m 558.71375,279.05859 3.59375,0 0,21.875 -3.59375,0 0,-21.875 m 0,-8.51562 3.59375,0 0,4.55078 -3.59375,0 0,-4.55078"
         style=""
         id="path9393" />
      <path
         d="m 587.99109,287.73047 0,13.20312 -3.59375,0 0,-13.08593 c -2e-5,-2.0703 -0.40366,-3.61978 -1.21094,-4.64844 -0.80731,-1.02863 -2.01824,-1.54295 -3.63281,-1.54297 -1.94012,2e-5 -3.47006,0.61851 -4.58984,1.85547 -1.1198,1.23699 -1.6797,2.92319 -1.67969,5.05859 l 0,12.36328 -3.61328,0 0,-21.875 3.61328,0 0,3.39844 c 0.85936,-1.31508 1.86848,-2.29816 3.02734,-2.94922 1.17186,-0.65102 2.51952,-0.97654 4.04297,-0.97656 2.513,2e-5 4.41404,0.78127 5.70313,2.34375 1.28904,1.5495 1.93357,3.83465 1.93359,6.85547"
         style=""
         id="path9395" />
    </g>
    <path
       style="fill:none;stroke:#000000;stroke-width:1px;stroke-linecap:butt;stroke-linejoin:miter;stroke-opacity:1;marker-start:none;marker-end:url(#Arrow1Lend)"
       d="m 161.42858,108.07647 c 32.01193,-3.48257 39.94706,18.01093 50,30"
       id="path8434"
       inkscape:connector-curvature="0"
       sodipodi:nodetypes="cc" />
    <path
       style="fill:none;stroke:#000000;stroke-width:1px;stroke-linecap:butt;stroke-linejoin:miter;stroke-opacity:1;marker-start:none;marker-end:url(#Arrow1Lend)"
       d="m 356.42857,171.8363 c 32.01193,-3.48257 39.94706,18.01093 50,30"
       id="path8434-6"
       inkscape:connector-curvature="0"
       sodipodi:nodetypes="cc" />
    <path
       style="fill:none;stroke:#000000;stroke-width:1px;stroke-linecap:butt;stroke-linejoin:miter;stroke-opacity:1;marker-start:none;marker-end:url(#Arrow1Lend)"
       d="m 487.14286,231.83631 c 32.01193,-3.48257 39.94706,18.01093 50,30"
       id="path8434-1"
       inkscape:connector-curvature="0"
       sodipodi:nodetypes="cc" />
  </g>
</svg>
