<?xml version="1.0" encoding="UTF-8" standalone="no"?>
<!-- Created with Inkscape (http://www.inkscape.org/) -->

<svg
   xmlns:dc="http://purl.org/dc/elements/1.1/"
   xmlns:cc="http://creativecommons.org/ns#"
   xmlns:rdf="http://www.w3.org/1999/02/22-rdf-syntax-ns#"
   xmlns:svg="http://www.w3.org/2000/svg"
   xmlns="http://www.w3.org/2000/svg"
   xmlns:sodipodi="http://sodipodi.sourceforge.net/DTD/sodipodi-0.dtd"
   xmlns:inkscape="http://www.inkscape.org/namespaces/inkscape"
   sodipodi:docname="initrd_diagram.svg"
   width="1890.7433"
   height="134.69797"
   id="svg7798"
   version="1.1"
   inkscape:version="0.48.5 r10040">
  <sodipodi:namedview
     id="base"
     pagecolor="#ffffff"
     bordercolor="#666666"
     borderopacity="1.0"
     inkscape:pageopacity="0.0"
     inkscape:pageshadow="2"
     inkscape:zoom="0.98994949"
     inkscape:cx="1698.9348"
     inkscape:cy="-27.993142"
     inkscape:document-units="px"
     inkscape:current-layer="layer1"
     showgrid="false"
     inkscape:window-width="1366"
     inkscape:window-height="768"
     inkscape:window-x="0"
     inkscape:window-y="0"
     inkscape:window-maximized="0"
     fit-margin-top="1"
     fit-margin-bottom="1"
     fit-margin-left="0"
     fit-margin-right="0" />
  <defs
     id="defs7800" />
  <metadata
     id="metadata7803">
    <rdf:RDF>
      <cc:Work
         rdf:about="">
        <dc:format>image/svg+xml</dc:format>
        <dc:type
           rdf:resource="http://purl.org/dc/dcmitype/StillImage" />
      </cc:Work>
    </rdf:RDF>
  </metadata>
  <g
     transform="translate(889.29954,-69.633113)"
     inkscape:label="Layer 1"
     inkscape:groupmode="layer"
     id="layer1">
    <rect
       style="fill:#ffffff;stroke:#000000;stroke-width:1.55564284;stroke-miterlimit:4;stroke-dasharray:none"
       id="rect7816"
       width="262.85715"
       height="129.67654"
       x="-611.16479"
       y="72.995964" />
    <rect
       style="fill:#ffffff;stroke:#000000;stroke-width:1.54143727;stroke-miterlimit:4;stroke-dasharray:none"
       id="rect7818"
       width="263.5553"
       height="130.39401"
       x="-340.02551"
       y="72.166344" />
    <g
       style="font-size:40px;font-style:normal;font-weight:normal;text-align:center;line-height:125%;letter-spacing:0px;word-spacing:0px;text-anchor:middle;fill:#000000;fill-opacity:1;stroke:none;font-family:Sans"
       id="text7806">
      <path
         d="m -548.69891,94.653351 0,4.160156 c -1.32815,-1.236955 -2.74742,-2.161433 -4.25782,-2.773437 -1.49741,-0.611953 -3.09246,-0.917943 -4.78515,-0.917969 -3.33335,2.6e-5 -5.88543,1.022161 -7.65625,3.066406 -1.77084,2.031273 -2.65626,4.973973 -2.65625,8.828123 -10e-6,3.84116 0.88541,6.78386 2.65625,8.82813 1.77082,2.03125 4.3229,3.04687 7.65625,3.04687 1.69269,0 3.28774,-0.30598 4.78515,-0.91797 1.5104,-0.61197 2.92967,-1.53645 4.25782,-2.77343 l 0,4.12109 c -1.38024,0.9375 -2.84508,1.64063 -4.39453,2.10937 -1.53648,0.46875 -3.16409,0.70313 -4.88282,0.70313 -4.41407,0 -7.89063,-1.34766 -10.42968,-4.04297 -2.53907,-2.70833 -3.8086,-6.39973 -3.8086,-11.07422 0,-4.68748 1.26953,-8.378881 3.8086,-11.074217 2.53905,-2.708305 6.01561,-4.06247 10.42968,-4.0625 1.74478,3e-5 3.3854,0.234405 4.92188,0.703125 1.54945,0.455758 3.00128,1.145862 4.35547,2.070313"
         style=""
         id="path8356" />
      <path
         d="m -532.78094,110.57132 c -2.90366,1e-5 -4.91538,0.33204 -6.03516,0.99609 -1.1198,0.66408 -1.67969,1.79689 -1.67969,3.39844 0,1.27605 0.41666,2.29167 1.25,3.04688 0.84635,0.74219 1.99218,1.11328 3.4375,1.11328 1.99218,0 3.58723,-0.70312 4.78516,-2.10938 1.21092,-1.41926 1.81639,-3.30077 1.8164,-5.64453 l 0,-0.80078 -3.57421,0 m 7.16796,-1.48438 0,12.48047 -3.59375,0 0,-3.32031 c -0.82033,1.32813 -1.84246,2.3112 -3.0664,2.94922 -1.22397,0.625 -2.72137,0.9375 -4.49219,0.9375 -2.23959,0 -4.02344,-0.625 -5.35156,-1.875 -1.31511,-1.26302 -1.97266,-2.94921 -1.97266,-5.05859 0,-2.46093 0.82031,-4.3164 2.46094,-5.56641 1.65364,-1.24999 4.11457,-1.87499 7.38281,-1.875 l 5.03906,0 0,-0.35156 c -10e-6,-1.65363 -0.54689,-2.92967 -1.64062,-3.82813 -1.08074,-0.91144 -2.60418,-1.36717 -4.57031,-1.36719 -1.25001,2e-5 -2.46746,0.14976 -3.65235,0.44922 -1.1849,0.2995 -2.32422,0.74872 -3.41797,1.34766 l 0,-3.32031 c 1.3151,-0.50779 2.59114,-0.885398 3.82813,-1.132815 1.23697,-0.260395 2.44139,-0.390603 3.61328,-0.390625 3.16405,2.2e-5 5.52733,0.820334 7.08984,2.46094 1.56248,1.64064 2.34373,4.12762 2.34375,7.46093"
         style=""
         id="path8358" />
      <path
         d="m -502.48798,110.64944 c -2e-5,-2.64321 -0.54689,-4.71352 -1.64062,-6.21093 -1.08075,-1.5104 -2.57163,-2.26561 -4.47266,-2.26563 -1.90105,2e-5 -3.39844,0.75523 -4.49218,2.26563 -1.08074,1.49741 -1.62111,3.56772 -1.6211,6.21093 -10e-6,2.64324 0.54036,4.72006 1.6211,6.23047 1.09374,1.4974 2.59113,2.2461 4.49218,2.2461 1.90103,0 3.39191,-0.7487 4.47266,-2.2461 1.09373,-1.51041 1.6406,-3.58723 1.64062,-6.23047 m -12.22656,-7.63671 c 0.7552,-1.30207 1.70572,-2.26561 2.85156,-2.89063 1.15885,-0.637998 2.53905,-0.957008 4.14063,-0.95703 2.65623,2.2e-5 4.81118,1.05471 6.46484,3.16406 1.66665,2.10939 2.49998,4.88283 2.5,8.32031 -2e-5,3.43751 -0.83335,6.21095 -2.5,8.32032 -1.65366,2.10937 -3.80861,3.16406 -6.46484,3.16406 -1.60158,0 -2.98178,-0.3125 -4.14063,-0.9375 -1.14584,-0.63802 -2.09636,-1.60807 -2.85156,-2.91016 l 0,3.28125 -3.61328,0 0,-30.390622 3.61328,0 0,11.835942"
         style=""
         id="path8360" />
      <path
         d="m -474.08954,109.73148 0,1.75781 -16.52344,0 c 0.15625,2.47396 0.89843,4.36198 2.22657,5.66406 1.34113,1.28907 3.20311,1.9336 5.58593,1.93359 1.3802,1e-5 2.71483,-0.16926 4.00391,-0.50781 1.30206,-0.33854 2.59113,-0.84635 3.86719,-1.52344 l 0,3.39844 c -1.28909,0.54688 -2.6107,0.96354 -3.96485,1.25 -1.35418,0.28646 -2.72788,0.42969 -4.12109,0.42969 -3.48959,0 -6.25652,-1.01562 -8.30078,-3.04688 -2.03125,-2.03124 -3.04688,-4.77863 -3.04688,-8.24218 0,-3.58072 0.96354,-6.41926 2.89063,-8.51563 1.9401,-2.10935 4.55077,-3.164038 7.83203,-3.16406 2.94269,2.2e-5 5.26691,0.95054 6.97266,2.85156 1.71872,1.88804 2.5781,4.45965 2.57812,7.71485 m -3.59375,-1.05469 c -0.0261,-1.96613 -0.57944,-3.53514 -1.66015,-4.70703 -1.06773,-1.17186 -2.487,-1.7578 -4.25782,-1.75782 -2.00522,2e-5 -3.61329,0.56643 -4.82422,1.69922 -1.19792,1.13283 -1.88802,2.72788 -2.07031,4.78516 l 12.8125,-0.0195"
         style=""
         id="path8362" />
      <path
         d="m -452.44891,100.53226 0,3.35937 c -1.01565,-0.55988 -2.03778,-0.97654 -3.06641,-1.25 -1.01564,-0.28644 -2.04429,-0.42967 -3.08594,-0.42969 -2.33074,2e-5 -4.14063,0.74221 -5.42968,2.22657 -1.28907,1.47137 -1.9336,3.54168 -1.9336,6.21093 0,2.66928 0.64453,4.7461 1.9336,6.23047 1.28905,1.47136 3.09894,2.20704 5.42968,2.20703 1.04165,1e-5 2.0703,-0.13671 3.08594,-0.41015 1.02863,-0.28646 2.05076,-0.70963 3.06641,-1.26953 l 0,3.32031 c -1.00263,0.46875 -2.04429,0.82031 -3.125,1.05469 -1.06773,0.23437 -2.20705,0.35156 -3.41797,0.35156 -3.29428,0 -5.91147,-1.03516 -7.85156,-3.10547 -1.94011,-2.07031 -2.91016,-4.86327 -2.91016,-8.37891 0,-3.56769 0.97656,-6.37368 2.92969,-8.41796 1.96614,-2.04425 4.65493,-3.066388 8.0664,-3.06641 1.10676,2.2e-5 2.18749,0.117209 3.24219,0.351562 1.05467,0.221376 2.0768,0.559918 3.06641,1.015628"
         style=""
         id="path8364" />
      <path
         d="m -427.44891,109.73148 0,1.75781 -16.52344,0 c 0.15624,2.47396 0.89843,4.36198 2.22656,5.66406 1.34114,1.28907 3.20312,1.9336 5.58594,1.93359 1.38019,1e-5 2.71483,-0.16926 4.00391,-0.50781 1.30206,-0.33854 2.59112,-0.84635 3.86718,-1.52344 l 0,3.39844 c -1.28908,0.54688 -2.61069,0.96354 -3.96484,1.25 -1.35418,0.28646 -2.72788,0.42969 -4.12109,0.42969 -3.4896,0 -6.25652,-1.01562 -8.30079,-3.04688 -2.03125,-2.03124 -3.04687,-4.77863 -3.04687,-8.24218 0,-3.58072 0.96354,-6.41926 2.89062,-8.51563 1.9401,-2.10935 4.55078,-3.164038 7.83204,-3.16406 2.94269,2.2e-5 5.2669,0.95054 6.97265,2.85156 1.71873,1.88804 2.5781,4.45965 2.57813,7.71485 m -3.59375,-1.05469 c -0.0261,-1.96613 -0.57945,-3.53514 -1.66016,-4.70703 -1.06772,-1.17186 -2.48699,-1.7578 -4.25781,-1.75782 -2.00522,2e-5 -3.61329,0.56643 -4.82422,1.69922 -1.19792,1.13283 -1.88803,2.72788 -2.07031,4.78516 l 12.8125,-0.0195"
         style=""
         id="path8366" />
      <path
         d="m -408.87469,103.05179 c -0.40367,-0.23436 -0.84637,-0.40363 -1.32813,-0.50781 -0.46876,-0.11717 -0.9896,-0.17577 -1.5625,-0.17579 -2.03126,2e-5 -3.59376,0.66409 -4.6875,1.99219 -1.08074,1.31512 -1.6211,3.20965 -1.62109,5.6836 l 0,11.52343 -3.61328,0 0,-21.874997 3.61328,0 0,3.398437 c 0.7552,-1.3281 1.73827,-2.31118 2.94922,-2.94922 1.21092,-0.651018 2.68227,-0.976538 4.41406,-0.97656 0.24738,2.2e-5 0.52082,0.01955 0.82031,0.05859 0.29946,0.02606 0.63149,0.07164 0.99609,0.136719 l 0.0195,3.691408"
         style=""
         id="path8368" />
      <path
         d="m -395.12469,110.57132 c -2.90366,1e-5 -4.91538,0.33204 -6.03516,0.99609 -1.1198,0.66408 -1.67969,1.79689 -1.67969,3.39844 0,1.27605 0.41666,2.29167 1.25,3.04688 0.84635,0.74219 1.99218,1.11328 3.4375,1.11328 1.99218,0 3.58723,-0.70312 4.78516,-2.10938 1.21092,-1.41926 1.81639,-3.30077 1.8164,-5.64453 l 0,-0.80078 -3.57421,0 m 7.16796,-1.48438 0,12.48047 -3.59375,0 0,-3.32031 c -0.82033,1.32813 -1.84246,2.3112 -3.0664,2.94922 -1.22397,0.625 -2.72137,0.9375 -4.49219,0.9375 -2.23959,0 -4.02344,-0.625 -5.35156,-1.875 -1.31511,-1.26302 -1.97266,-2.94921 -1.97266,-5.05859 0,-2.46093 0.82031,-4.3164 2.46094,-5.56641 1.65364,-1.24999 4.11457,-1.87499 7.38281,-1.875 l 5.03906,0 0,-0.35156 c -1e-5,-1.65363 -0.54689,-2.92967 -1.64062,-3.82813 -1.08074,-0.91144 -2.60418,-1.36717 -4.57031,-1.36719 -1.25001,2e-5 -2.46746,0.14976 -3.65235,0.44922 -1.1849,0.2995 -2.32422,0.74872 -3.41797,1.34766 l 0,-3.32031 c 1.3151,-0.50779 2.59114,-0.885398 3.82813,-1.132815 1.23697,-0.260395 2.44139,-0.390603 3.61328,-0.390625 3.16405,2.2e-5 5.52733,0.820334 7.08984,2.46094 1.56248,1.64064 2.34373,4.12762 2.34375,7.46093"
         style=""
         id="path8370" />
    </g>
    <g
       style="font-size:40px;font-style:normal;font-weight:normal;text-align:center;line-height:125%;letter-spacing:0px;word-spacing:0px;text-anchor:middle;fill:#000000;fill-opacity:1;stroke:none;font-family:Sans"
       id="text7875">
      <path
         d="m -590.07211,158.82854 0,-11.83594 3.59375,0 0,30.39062 -3.59375,0 0,-3.28125 c -0.75523,1.30209 -1.71226,2.27214 -2.8711,2.91016 -1.14584,0.625 -2.52605,0.9375 -4.14062,0.9375 -2.64324,0 -4.79819,-1.05469 -6.46485,-3.16406 -1.65364,-2.10937 -2.48047,-4.88281 -2.48046,-8.32031 -10e-6,-3.43749 0.82682,-6.21092 2.48046,-8.32032 1.66666,-2.10935 3.82161,-3.16404 6.46485,-3.16406 1.61457,2e-5 2.99478,0.31903 4.14062,0.95703 1.15884,0.62502 2.11587,1.58856 2.8711,2.89063 m -12.2461,7.63672 c 0,2.64323 0.54036,4.72005 1.6211,6.23046 1.09374,1.4974 2.59113,2.2461 4.49218,2.2461 1.90103,0 3.39843,-0.7487 4.49219,-2.2461 1.09373,-1.51041 1.64061,-3.58723 1.64063,-6.23046 -2e-5,-2.64322 -0.5469,-4.71353 -1.64063,-6.21094 -1.09376,-1.5104 -2.59116,-2.26561 -4.49219,-2.26563 -1.90105,2e-5 -3.39844,0.75523 -4.49218,2.26563 -1.08074,1.49741 -1.6211,3.56772 -1.6211,6.21094"
         style=""
         id="path8333" />
      <path
         d="m -560.36508,165.54729 0,1.75781 -16.52344,0 c 0.15624,2.47397 0.89843,4.36198 2.22656,5.66406 1.34114,1.28907 3.20312,1.9336 5.58594,1.9336 1.38019,0 2.71483,-0.16927 4.00391,-0.50782 1.30206,-0.33854 2.59112,-0.84635 3.86718,-1.52343 l 0,3.39843 c -1.28908,0.54688 -2.61069,0.96355 -3.96484,1.25 -1.35418,0.28646 -2.72788,0.42969 -4.12109,0.42969 -3.4896,0 -6.25652,-1.01562 -8.30078,-3.04687 -2.03126,-2.03125 -3.04688,-4.77864 -3.04688,-8.24219 0,-3.58072 0.96354,-6.41926 2.89063,-8.51563 1.94009,-2.10935 4.55077,-3.16404 7.83203,-3.16406 2.94269,2e-5 5.26691,0.95054 6.97265,2.85156 1.71873,1.88804 2.57811,4.45965 2.57813,7.71485 m -3.59375,-1.05469 c -0.0261,-1.96613 -0.57945,-3.53514 -1.66016,-4.70703 -1.06772,-1.17186 -2.48699,-1.75779 -4.25781,-1.75781 -2.00522,2e-5 -3.61329,0.56642 -4.82422,1.69921 -1.19792,1.13283 -1.88803,2.72788 -2.07031,4.78516 l 12.8125,-0.0195"
         style=""
         id="path8335" />
      <path
         d="m -554.46664,146.9926 3.59375,0 0,30.39062 -3.59375,0 0,-30.39062"
         style=""
         id="path8337" />
      <path
         d="m -520.69711,166.38713 c -2.90366,10e-6 -4.91538,0.33204 -6.03516,0.99609 -1.1198,0.66408 -1.67969,1.79689 -1.67969,3.39844 0,1.27605 0.41666,2.29167 1.25,3.04688 0.84635,0.74219 1.99218,1.11328 3.4375,1.11328 1.99218,0 3.58723,-0.70312 4.78516,-2.10938 1.21092,-1.41926 1.81639,-3.30077 1.81641,-5.64453 l 0,-0.80078 -3.57422,0 m 7.16797,-1.48437 0,12.48046 -3.59375,0 0,-3.32031 c -0.82033,1.32813 -1.84247,2.3112 -3.06641,2.94922 -1.22397,0.625 -2.72137,0.9375 -4.49219,0.9375 -2.23959,0 -4.02344,-0.625 -5.35156,-1.875 -1.31511,-1.26302 -1.97266,-2.94921 -1.97266,-5.05859 0,-2.46093 0.82031,-4.3164 2.46094,-5.56641 1.65364,-1.24999 4.11458,-1.87499 7.38281,-1.875 l 5.03907,0 0,-0.35156 c -2e-5,-1.65363 -0.5469,-2.92967 -1.64063,-3.82813 -1.08074,-0.91144 -2.60418,-1.36716 -4.57031,-1.36718 -1.25001,2e-5 -2.46746,0.14975 -3.65235,0.44921 -1.1849,0.2995 -2.32422,0.74872 -3.41796,1.34766 l 0,-3.32031 c 1.31509,-0.50779 2.59113,-0.8854 3.82812,-1.13281 1.23697,-0.2604 2.4414,-0.39061 3.61328,-0.39063 3.16405,2e-5 5.52733,0.82033 7.08985,2.46094 1.56248,1.64064 2.34372,4.12762 2.34375,7.46094"
         style=""
         id="path8339" />
      <path
         d="m -493.43149,158.8676 c -0.40366,-0.23436 -0.84637,-0.40363 -1.32812,-0.50781 -0.46877,-0.11717 -0.9896,-0.17577 -1.5625,-0.17578 -2.03126,1e-5 -3.59376,0.66408 -4.6875,1.99218 -1.08074,1.31512 -1.6211,3.20965 -1.6211,5.6836 l 0,11.52343 -3.61328,0 0,-21.875 3.61328,0 0,3.39844 c 0.7552,-1.3281 1.73828,-2.31118 2.94922,-2.94922 1.21093,-0.65102 2.68228,-0.97654 4.41406,-0.97656 0.24739,2e-5 0.52082,0.0195 0.82032,0.0586 0.29946,0.0261 0.63149,0.0716 0.99609,0.13672 l 0.0195,3.69141"
         style=""
         id="path8341" />
      <path
         d="m -474.74008,156.34807 0,3.35937 c -1.01565,-0.55987 -2.03778,-0.97654 -3.06641,-1.25 -1.01564,-0.28644 -2.04428,-0.42966 -3.08594,-0.42968 -2.33074,2e-5 -4.14063,0.7422 -5.42968,2.22656 -1.28907,1.47137 -1.9336,3.54168 -1.9336,6.21094 0,2.66927 0.64453,4.7461 1.9336,6.23046 1.28905,1.47136 3.09894,2.20704 5.42968,2.20704 1.04166,0 2.0703,-0.13672 3.08594,-0.41016 1.02863,-0.28646 2.05076,-0.70963 3.06641,-1.26953 l 0,3.32031 c -1.00262,0.46875 -2.04429,0.82031 -3.125,1.05469 -1.06773,0.23437 -2.20705,0.35156 -3.41797,0.35156 -3.29428,0 -5.91147,-1.03516 -7.85156,-3.10547 -1.94011,-2.07031 -2.91016,-4.86327 -2.91016,-8.3789 0,-3.5677 0.97656,-6.37368 2.92969,-8.41797 1.96614,-2.04425 4.65494,-3.06639 8.0664,-3.06641 1.10676,2e-5 2.18749,0.11721 3.24219,0.35156 1.05467,0.22138 2.07681,0.55992 3.06641,1.01563"
         style=""
         id="path8343" />
      <path
         d="m -450.26743,164.1801 0,13.20312 -3.59375,0 0,-13.08593 c -1e-5,-2.0703 -0.40366,-3.61978 -1.21093,-4.64844 -0.80731,-1.02863 -2.01825,-1.54295 -3.63282,-1.54297 -1.94011,2e-5 -3.47006,0.61851 -4.58984,1.85547 -1.1198,1.23699 -1.67969,2.92319 -1.67969,5.05859 l 0,12.36328 -3.61328,0 0,-30.39062 3.61328,0 0,11.91406 c 0.85937,-1.31508 1.86848,-2.29815 3.02735,-2.94922 1.17186,-0.65102 2.51952,-0.97654 4.04297,-0.97656 2.513,2e-5 4.41404,0.78127 5.70312,2.34375 1.28904,1.5495 1.93357,3.83465 1.93359,6.85547"
         style=""
         id="path8345" />
      <path
         d="m -443.06039,155.50822 3.59375,0 0,21.875 -3.59375,0 0,-21.875 m 0,-8.51562 3.59375,0 0,4.55078 -3.59375,0 0,-4.55078"
         style=""
         id="path8347" />
      <path
         d="m -434.54477,155.50822 3.80859,0 6.83594,18.35938 6.83594,-18.35938 3.80859,0 -8.20312,21.875 -4.88281,0 -8.20313,-21.875"
         style=""
         id="path8349" />
      <path
         d="m -399.81821,158.02776 c -1.92709,2e-5 -3.45053,0.75522 -4.57031,2.26562 -1.1198,1.49741 -1.67969,3.5547 -1.67969,6.17188 0,2.61719 0.55338,4.68099 1.66016,6.1914 1.11978,1.4974 2.64973,2.2461 4.58984,2.2461 1.91405,0 3.43098,-0.75521 4.55078,-2.26563 1.11978,-1.51041 1.67967,-3.5677 1.67969,-6.17187 -2e-5,-2.59114 -0.55991,-4.64192 -1.67969,-6.15235 -1.1198,-1.52342 -2.63673,-2.28513 -4.55078,-2.28515 m 0,-3.04688 c 3.12499,2e-5 5.57941,1.01565 7.36328,3.04688 1.78384,2.03126 2.67576,4.84376 2.67579,8.4375 -3e-5,3.58073 -0.89195,6.39323 -2.67579,8.4375 -1.78387,2.03125 -4.23829,3.04687 -7.36328,3.04687 -3.13803,0 -5.59896,-1.01562 -7.38281,-3.04687 -1.77084,-2.04427 -2.65625,-4.85677 -2.65625,-8.4375 0,-3.59374 0.88541,-6.40624 2.65625,-8.4375 1.78385,-2.03123 4.24478,-3.04686 7.38281,-3.04688"
         style=""
         id="path8351" />
      <path
         d="m -369.91586,174.06291 6.44531,0 0,-22.24609 -7.01172,1.40625 0,-3.59375 6.97266,-1.40625 3.94531,0 0,25.83984 6.44531,0 0,3.32031 -16.79687,0 0,-3.32031"
         style=""
         id="path8353" />
    </g>
    <text
       xml:space="preserve"
       style="font-size:40px;font-style:normal;font-weight:normal;text-align:center;line-height:125%;letter-spacing:0px;word-spacing:0px;text-anchor:middle;fill:#000000;fill-opacity:1;stroke:none;font-family:Sans"
       x="182.85715"
       y="238.07648"
       id="text7878"
       sodipodi:linespacing="125%"><tspan
         sodipodi:role="line"
         x="182.85715"
         y="238.07648"
         id="tspan7812" /></text>
    <g
       style="font-size:40px;font-style:normal;font-weight:normal;text-align:center;line-height:125%;letter-spacing:0px;word-spacing:0px;text-anchor:middle;fill:#000000;fill-opacity:1;stroke:none;font-family:Sans"
       id="text7881">
      <path
         d="m -285.33485,122.85229 -5.35157,14.51172 10.72266,0 -5.37109,-14.51172 m -2.22657,-3.88671 4.47266,0 11.11328,29.16015 -4.10156,0 -2.65625,-7.48047 -13.14453,0 -2.65625,7.48047 -4.16016,0 11.13281,-29.16015"
         style=""
         id="path8316" />
      <path
         d="m -255.21767,129.61011 c -0.40366,-0.23436 -0.84637,-0.40363 -1.32812,-0.50782 -0.46877,-0.11716 -0.9896,-0.17576 -1.5625,-0.17578 -2.03126,2e-5 -3.59376,0.66408 -4.6875,1.99219 -1.08074,1.31512 -1.6211,3.20965 -1.6211,5.68359 l 0,11.52344 -3.61328,0 0,-21.875 3.61328,0 0,3.39844 c 0.7552,-1.32811 1.73828,-2.31118 2.94922,-2.94922 1.21093,-0.65102 2.68228,-0.97654 4.41407,-0.97656 0.24738,2e-5 0.52081,0.0196 0.82031,0.0586 0.29946,0.0261 0.63149,0.0716 0.99609,0.13672 l 0.0195,3.69141"
         style=""
         id="path8318" />
      <path
         d="m -236.52626,127.09058 0,3.35937 c -1.01564,-0.55988 -2.03778,-0.97654 -3.06641,-1.25 -1.01564,-0.28644 -2.04428,-0.42967 -3.08593,-0.42969 -2.33074,2e-5 -4.14064,0.74221 -5.42969,2.22657 -1.28907,1.47137 -1.9336,3.54168 -1.9336,6.21093 0,2.66928 0.64453,4.7461 1.9336,6.23047 1.28905,1.47136 3.09895,2.20704 5.42969,2.20703 1.04165,1e-5 2.07029,-0.13671 3.08593,-0.41015 1.02863,-0.28646 2.05077,-0.70963 3.06641,-1.26953 l 0,3.32031 c -1.00262,0.46875 -2.04429,0.82031 -3.125,1.05469 -1.06772,0.23437 -2.20705,0.35156 -3.41797,0.35156 -3.29428,0 -5.91146,-1.03516 -7.85156,-3.10547 -1.94011,-2.07031 -2.91016,-4.86327 -2.91016,-8.37891 0,-3.56769 0.97656,-6.37368 2.92969,-8.41797 1.96614,-2.04424 4.65494,-3.06638 8.06641,-3.0664 1.10675,2e-5 2.18748,0.11721 3.24218,0.35156 1.05467,0.22138 2.07681,0.55992 3.06641,1.01563"
         style=""
         id="path8320" />
      <path
         d="m -212.0536,134.92261 0,13.20312 -3.59375,0 0,-13.08594 c -2e-5,-2.07029 -0.40367,-3.61977 -1.21094,-4.64843 -0.80731,-1.02863 -2.01825,-1.54295 -3.63281,-1.54297 -1.94012,2e-5 -3.47007,0.61851 -4.58985,1.85547 -1.1198,1.23699 -1.67969,2.92319 -1.67969,5.05859 l 0,12.36328 -3.61328,0 0,-30.39062 3.61328,0 0,11.91406 c 0.85937,-1.31508 1.86849,-2.29816 3.02735,-2.94922 1.17186,-0.65102 2.51952,-0.97654 4.04297,-0.97656 2.513,2e-5 4.41404,0.78127 5.70312,2.34375 1.28904,1.5495 1.93357,3.83465 1.9336,6.85547"
         style=""
         id="path8322" />
      <path
         d="m -204.84657,126.25073 3.59375,0 0,21.875 -3.59375,0 0,-21.875 m 0,-8.51562 3.59375,0 0,4.55078 -3.59375,0 0,-4.55078"
         style=""
         id="path8324" />
      <path
         d="m -196.33095,126.25073 3.8086,0 6.83593,18.35938 6.83594,-18.35938 3.80859,0 -8.20312,21.875 -4.88281,0 -8.20313,-21.875"
         style=""
         id="path8326" />
      <path
         d="m -161.60439,128.77026 c -1.92709,2e-5 -3.45053,0.75523 -4.57031,2.26563 -1.1198,1.49741 -1.67969,3.5547 -1.67969,6.17187 0,2.6172 0.55338,4.681 1.66016,6.19141 1.11978,1.4974 2.64973,2.2461 4.58984,2.24609 1.91405,1e-5 3.43098,-0.7552 4.55079,-2.26562 1.11977,-1.51041 1.67966,-3.5677 1.67968,-6.17188 -2e-5,-2.59113 -0.55991,-4.64191 -1.67968,-6.15234 -1.11981,-1.52342 -2.63674,-2.28514 -4.55079,-2.28516 m 0,-3.04687 c 3.12499,2e-5 5.57941,1.01565 7.36329,3.04687 1.78383,2.03127 2.67575,4.84377 2.67578,8.4375 -3e-5,3.58074 -0.89195,6.39324 -2.67578,8.4375 -1.78388,2.03125 -4.2383,3.04688 -7.36329,3.04688 -3.13803,0 -5.59896,-1.01563 -7.38281,-3.04688 -1.77083,-2.04426 -2.65625,-4.85676 -2.65625,-8.4375 0,-3.59373 0.88542,-6.40623 2.65625,-8.4375 1.78385,-2.03122 4.24478,-3.04685 7.38281,-3.04687"
         style=""
         id="path8328" />
      <path
         d="m -131.70204,144.80542 6.44531,0 0,-22.24609 -7.01172,1.40625 0,-3.59375 6.97266,-1.40625 3.94531,0 0,25.83984 6.44531,0 0,3.32031 -16.79687,0 0,-3.32031"
         style=""
         id="path8330" />
    </g>
    <rect
       y="92.236023"
       x="-888.53833"
       height="90"
       width="265.64502"
       id="rect7963"
       style="fill:#ffffff;stroke:#000000;stroke-width:1.52242506;stroke-miterlimit:4;stroke-dasharray:none" />
    <g
       style="font-size:40px;font-style:normal;font-weight:normal;text-align:center;line-height:125%;letter-spacing:0px;word-spacing:0px;text-anchor:middle;fill:#000000;fill-opacity:1;stroke:none;font-family:Sans"
       id="text7957">
      <path
         d="m -820.5036,100.05738 0,4.16016 c -1.32815,-1.23696 -2.74742,-2.16144 -4.25781,-2.77344 -1.49742,-0.61195 -3.09247,-0.91794 -4.78516,-0.91797 -3.33335,3e-5 -5.88543,1.02216 -7.65625,3.06641 -1.77084,2.03127 -2.65626,4.97397 -2.65625,8.82812 -10e-6,3.84116 0.88541,6.78386 2.65625,8.82813 1.77082,2.03125 4.3229,3.04687 7.65625,3.04687 1.69269,0 3.28774,-0.30598 4.78516,-0.91797 1.51039,-0.61197 2.92966,-1.53645 4.25781,-2.77343 l 0,4.12109 c -1.38023,0.9375 -2.84508,1.64063 -4.39453,2.10937 -1.53648,0.46875 -3.16408,0.70313 -4.88281,0.70313 -4.41408,0 -7.89064,-1.34766 -10.42969,-4.04297 -2.53907,-2.70833 -3.8086,-6.39973 -3.8086,-11.07422 0,-4.68748 1.26953,-8.37888 3.8086,-11.07422 2.53905,-2.708302 6.01561,-4.062467 10.42969,-4.062497 1.74477,3e-5 3.38539,0.234405 4.92187,0.703125 1.54946,0.455758 3.00128,1.145861 4.35547,2.070312"
         style=""
         id="path8394" />
      <path
         d="m -804.58563,115.97535 c -2.90366,10e-6 -4.91538,0.33204 -6.03516,0.99609 -1.1198,0.66408 -1.67969,1.79689 -1.67969,3.39844 0,1.27605 0.41666,2.29167 1.25,3.04688 0.84635,0.74219 1.99218,1.11328 3.4375,1.11328 1.99218,0 3.58723,-0.70312 4.78516,-2.10938 1.21092,-1.41926 1.81639,-3.30077 1.81641,-5.64453 l 0,-0.80078 -3.57422,0 m 7.16797,-1.48438 0,12.48047 -3.59375,0 0,-3.32031 c -0.82033,1.32813 -1.84247,2.3112 -3.06641,2.94922 -1.22397,0.625 -2.72137,0.9375 -4.49219,0.9375 -2.23959,0 -4.02344,-0.625 -5.35156,-1.875 -1.31511,-1.26302 -1.97266,-2.94922 -1.97266,-5.05859 0,-2.46093 0.82031,-4.3164 2.46094,-5.56641 1.65364,-1.24999 4.11458,-1.87499 7.38281,-1.875 l 5.03907,0 0,-0.35156 c -2e-5,-1.65363 -0.5469,-2.92967 -1.64063,-3.82813 -1.08074,-0.91144 -2.60418,-1.36717 -4.57031,-1.36719 -1.25001,2e-5 -2.46746,0.14976 -3.65234,0.44922 -1.18491,0.2995 -2.32423,0.74872 -3.41797,1.34766 l 0,-3.32031 c 1.3151,-0.50779 2.59114,-0.8854 3.82812,-1.13282 1.23697,-0.26039 2.4414,-0.3906 3.61328,-0.39062 3.16405,2e-5 5.52733,0.82033 7.08985,2.46094 1.56248,1.64064 2.34373,4.12762 2.34375,7.46093"
         style=""
         id="path8396" />
      <path
         d="m -771.81219,113.76832 0,13.20312 -3.59375,0 0,-13.08593 c -2e-5,-2.0703 -0.40367,-3.61978 -1.21094,-4.64844 -0.80731,-1.02863 -2.01825,-1.54295 -3.63281,-1.54297 -1.94012,2e-5 -3.47007,0.61851 -4.58985,1.85547 -1.1198,1.23699 -1.67969,2.92319 -1.67969,5.05859 l 0,12.36328 -3.61328,0 0,-21.875 3.61328,0 0,3.39844 c 0.85937,-1.31508 1.86848,-2.29816 3.02735,-2.94922 1.17186,-0.65102 2.51952,-0.97654 4.04297,-0.97656 2.513,2e-5 4.41404,0.78127 5.70312,2.34375 1.28904,1.5495 1.93357,3.83465 1.9336,6.85547"
         style=""
         id="path8398" />
      <path
         d="m -761.05048,98.885506 0,6.210934 7.40235,0 0,2.79297 -7.40235,0 0,11.875 c 0,1.78386 0.24088,2.92969 0.72266,3.4375 0.49478,0.50782 1.49088,0.76172 2.98828,0.76172 l 3.69141,0 0,3.00781 -3.69141,0 c -2.77344,0 -4.6875,-0.51432 -5.74219,-1.54297 -1.05469,-1.04166 -1.58203,-2.92968 -1.58203,-5.66406 l 0,-11.875 -2.63672,0 0,-2.79297 2.63672,0 0,-6.210934 3.61328,0"
         style=""
         id="path8400" />
      <path
         d="m -748.90204,105.09644 3.59375,0 0,21.875 -3.59375,0 0,-21.875 m 0,-8.515622 3.59375,0 0,4.550782 -3.59375,0 0,-4.550782"
         style=""
         id="path8402" />
      <path
         d="m -723.41376,108.41676 0,-11.835942 3.59375,0 0,30.390622 -3.59375,0 0,-3.28125 c -0.75522,1.30209 -1.71225,2.27214 -2.87109,2.91016 -1.14585,0.625 -2.52606,0.9375 -4.14063,0.9375 -2.64323,0 -4.79818,-1.05469 -6.46484,-3.16406 -1.65365,-2.10937 -2.48047,-4.88281 -2.48047,-8.32032 0,-3.43748 0.82682,-6.21092 2.48047,-8.32031 1.66666,-2.10935 3.82161,-3.16404 6.46484,-3.16406 1.61457,2e-5 2.99478,0.31903 4.14063,0.95703 1.15884,0.62502 2.11587,1.58856 2.87109,2.89063 m -12.24609,7.63671 c -10e-6,2.64324 0.54036,4.72006 1.62109,6.23047 1.09374,1.4974 2.59114,2.2461 4.49219,2.2461 1.90103,0 3.39842,-0.7487 4.49219,-2.2461 1.09373,-1.51041 1.6406,-3.58723 1.64062,-6.23047 -2e-5,-2.64321 -0.54689,-4.71352 -1.64062,-6.21093 -1.09377,-1.5104 -2.59116,-2.26561 -4.49219,-2.26563 -1.90105,2e-5 -3.39845,0.75523 -4.49219,2.26563 -1.08073,1.49741 -1.6211,3.56772 -1.62109,6.21093"
         style=""
         id="path8404" />
      <path
         d="m -702.47626,115.97535 c -2.90365,10e-6 -4.91537,0.33204 -6.03515,0.99609 -1.1198,0.66408 -1.6797,1.79689 -1.67969,3.39844 -10e-6,1.27605 0.41666,2.29167 1.25,3.04688 0.84635,0.74219 1.99218,1.11328 3.4375,1.11328 1.99217,0 3.58722,-0.70312 4.78516,-2.10938 1.21092,-1.41926 1.81638,-3.30077 1.8164,-5.64453 l 0,-0.80078 -3.57422,0 m 7.16797,-1.48438 0,12.48047 -3.59375,0 0,-3.32031 c -0.82033,1.32813 -1.84246,2.3112 -3.0664,2.94922 -1.22398,0.625 -2.72137,0.9375 -4.49219,0.9375 -2.23959,0 -4.02345,-0.625 -5.35156,-1.875 -1.31511,-1.26302 -1.97266,-2.94922 -1.97266,-5.05859 0,-2.46093 0.82031,-4.3164 2.46094,-5.56641 1.65364,-1.24999 4.11457,-1.87499 7.38281,-1.875 l 5.03906,0 0,-0.35156 c -2e-5,-1.65363 -0.54689,-2.92967 -1.64062,-3.82813 -1.08075,-0.91144 -2.60418,-1.36717 -4.57032,-1.36719 -1.25001,2e-5 -2.46745,0.14976 -3.65234,0.44922 -1.1849,0.2995 -2.32422,0.74872 -3.41797,1.34766 l 0,-3.32031 c 1.3151,-0.50779 2.59114,-0.8854 3.82813,-1.13282 1.23697,-0.26039 2.44139,-0.3906 3.61328,-0.39062 3.16405,2e-5 5.52732,0.82033 7.08984,2.46094 1.56248,1.64064 2.34373,4.12762 2.34375,7.46093"
         style=""
         id="path8406" />
      <path
         d="m -673.49188,108.41676 0,-11.835942 3.59375,0 0,30.390622 -3.59375,0 0,-3.28125 c -0.75523,1.30209 -1.71226,2.27214 -2.8711,2.91016 -1.14584,0.625 -2.52605,0.9375 -4.14062,0.9375 -2.64324,0 -4.79818,-1.05469 -6.46484,-3.16406 -1.65365,-2.10937 -2.48048,-4.88281 -2.48047,-8.32032 -1e-5,-3.43748 0.82682,-6.21092 2.48047,-8.32031 1.66666,-2.10935 3.8216,-3.16404 6.46484,-3.16406 1.61457,2e-5 2.99478,0.31903 4.14062,0.95703 1.15884,0.62502 2.11587,1.58856 2.8711,2.89063 m -12.2461,7.63671 c 0,2.64324 0.54036,4.72006 1.6211,6.23047 1.09374,1.4974 2.59113,2.2461 4.49219,2.2461 1.90102,0 3.39842,-0.7487 4.49218,-2.2461 1.09374,-1.51041 1.64061,-3.58723 1.64063,-6.23047 -2e-5,-2.64321 -0.54689,-4.71352 -1.64063,-6.21093 -1.09376,-1.5104 -2.59116,-2.26561 -4.49218,-2.26563 -1.90106,2e-5 -3.39845,0.75523 -4.49219,2.26563 -1.08074,1.49741 -1.6211,3.56772 -1.6211,6.21093"
         style=""
         id="path8408" />
    </g>
    <g
       style="font-size:40px;font-style:normal;font-weight:normal;text-align:center;line-height:125%;letter-spacing:0px;word-spacing:0px;text-anchor:middle;fill:#000000;fill-opacity:1;stroke:none;font-family:Sans"
       id="text8067">
      <path
         d="m -853.29657,158.41675 0,-11.83594 3.59375,0 0,30.39063 -3.59375,0 0,-3.28125 c -0.75523,1.30208 -1.71226,2.27213 -2.87109,2.91015 -1.14585,0.625 -2.52606,0.9375 -4.14063,0.9375 -2.64324,0 -4.79818,-1.05469 -6.46484,-3.16406 -1.65365,-2.10937 -2.48047,-4.88281 -2.48047,-8.32031 0,-3.43749 0.82682,-6.21092 2.48047,-8.32032 1.66666,-2.10935 3.8216,-3.16404 6.46484,-3.16406 1.61457,2e-5 2.99478,0.31903 4.14063,0.95703 1.15883,0.62502 2.11586,1.58856 2.87109,2.89063 m -12.24609,7.63672 c -1e-5,2.64323 0.54035,4.72006 1.62109,6.23047 1.09374,1.49739 2.59114,2.24609 4.49219,2.24609 1.90103,0 3.39842,-0.7487 4.49219,-2.24609 1.09373,-1.51041 1.6406,-3.58724 1.64062,-6.23047 -2e-5,-2.64322 -0.54689,-4.71353 -1.64062,-6.21094 -1.09377,-1.5104 -2.59116,-2.26561 -4.49219,-2.26563 -1.90105,2e-5 -3.39845,0.75523 -4.49219,2.26563 -1.08074,1.49741 -1.6211,3.56772 -1.62109,6.21094"
         style=""
         id="path8373" />
      <path
         d="m -823.58954,165.1355 0,1.75781 -16.52344,0 c 0.15625,2.47397 0.89843,4.36199 2.22657,5.66406 1.34113,1.28907 3.20311,1.9336 5.58593,1.9336 1.3802,0 2.71483,-0.16927 4.00391,-0.50782 1.30206,-0.33853 2.59113,-0.84635 3.86719,-1.52343 l 0,3.39843 c -1.28909,0.54688 -2.6107,0.96355 -3.96485,1.25 -1.35418,0.28646 -2.72788,0.42969 -4.12109,0.42969 -3.48959,0 -6.25652,-1.01562 -8.30078,-3.04687 -2.03125,-2.03125 -3.04688,-4.77864 -3.04688,-8.24219 0,-3.58072 0.96354,-6.41925 2.89063,-8.51563 1.9401,-2.10935 4.55077,-3.16404 7.83203,-3.16406 2.94269,2e-5 5.26691,0.95054 6.97266,2.85156 1.71872,1.88804 2.5781,4.45965 2.57812,7.71485 m -3.59375,-1.05469 c -0.0261,-1.96613 -0.57944,-3.53514 -1.66015,-4.70703 -1.06773,-1.17186 -2.487,-1.75779 -4.25782,-1.75781 -2.00522,2e-5 -3.61329,0.56642 -4.82422,1.69922 -1.19792,1.13282 -1.88802,2.72788 -2.07031,4.78515 l 12.8125,-0.0195"
         style=""
         id="path8375" />
      <path
         d="m -795.01532,165.97534 c -2.90366,1e-5 -4.91537,0.33204 -6.03516,0.9961 -1.11979,0.66407 -1.67969,1.79688 -1.67968,3.39843 -1e-5,1.27605 0.41666,2.29167 1.25,3.04688 0.84634,0.74219 1.99217,1.11328 3.4375,1.11328 1.99217,0 3.58722,-0.70312 4.78515,-2.10938 1.21092,-1.41926 1.81639,-3.30077 1.81641,-5.64453 l 0,-0.80078 -3.57422,0 m 7.16797,-1.48437 0,12.48047 -3.59375,0 0,-3.32032 c -0.82033,1.32813 -1.84246,2.3112 -3.06641,2.94922 -1.22397,0.625 -2.72136,0.9375 -4.49218,0.9375 -2.2396,0 -4.02345,-0.625 -5.35157,-1.875 -1.3151,-1.26302 -1.97266,-2.94921 -1.97265,-5.05859 -1e-5,-2.46093 0.82031,-4.3164 2.46093,-5.56641 1.65364,-1.24999 4.11458,-1.87498 7.38282,-1.875 l 5.03906,0 0,-0.35156 c -2e-5,-1.65363 -0.54689,-2.92967 -1.64063,-3.82813 -1.08074,-0.91144 -2.60418,-1.36716 -4.57031,-1.36718 -1.25001,2e-5 -2.46746,0.14976 -3.65234,0.44922 -1.1849,0.29949 -2.32423,0.74871 -3.41797,1.34765 l 0,-3.32031 c 1.3151,-0.50779 2.59114,-0.8854 3.82812,-1.13281 1.23697,-0.2604 2.4414,-0.39061 3.61329,-0.39063 3.16404,2e-5 5.52732,0.82034 7.08984,2.46094 1.56248,1.64064 2.34373,4.12762 2.34375,7.46094"
         style=""
         id="path8377" />
      <path
         d="m -767.74969,158.45581 c -0.40367,-0.23436 -0.84637,-0.40363 -1.32813,-0.50781 -0.46876,-0.11717 -0.9896,-0.17576 -1.5625,-0.17578 -2.03126,2e-5 -3.59376,0.66408 -4.6875,1.99218 -1.08074,1.31512 -1.6211,3.20965 -1.62109,5.6836 l 0,11.52344 -3.61328,0 0,-21.875 3.61328,0 0,3.39843 c 0.7552,-1.3281 1.73827,-2.31117 2.94922,-2.94922 1.21092,-0.65102 2.68227,-0.97654 4.41406,-0.97656 0.24738,2e-5 0.52082,0.0196 0.82031,0.0586 0.29946,0.0261 0.63149,0.0716 0.99609,0.13671 l 0.0195,3.69141"
         style=""
         id="path8379" />
      <path
         d="m -749.05829,155.93628 0,3.35937 c -1.01564,-0.55987 -2.03778,-0.97654 -3.0664,-1.25 -1.01565,-0.28643 -2.04429,-0.42966 -3.08594,-0.42968 -2.33074,2e-5 -4.14064,0.7422 -5.42969,2.22656 -1.28907,1.47137 -1.9336,3.54168 -1.93359,6.21094 -1e-5,2.66928 0.64452,4.7461 1.93359,6.23047 1.28905,1.47135 3.09895,2.20703 5.42969,2.20703 1.04165,0 2.07029,-0.13672 3.08594,-0.41016 1.02862,-0.28645 2.05076,-0.70963 3.0664,-1.26953 l 0,3.32031 c -1.00262,0.46875 -2.04429,0.82031 -3.125,1.05469 -1.06772,0.23437 -2.20704,0.35156 -3.41797,0.35156 -3.29428,0 -5.91146,-1.03515 -7.85156,-3.10547 -1.94011,-2.0703 -2.91016,-4.86327 -2.91016,-8.3789 0,-3.5677 0.97656,-6.37368 2.92969,-8.41797 1.96614,-2.04425 4.65494,-3.06639 8.06641,-3.06641 1.10675,2e-5 2.18748,0.11721 3.24219,0.35156 1.05467,0.22138 2.0768,0.55992 3.0664,1.01563"
         style=""
         id="path8381" />
      <path
         d="m -724.58563,163.76831 0,13.20313 -3.59375,0 0,-13.08594 c -2e-5,-2.0703 -0.40367,-3.61978 -1.21094,-4.64844 -0.80731,-1.02863 -2.01824,-1.54295 -3.63281,-1.54297 -1.94012,2e-5 -3.47006,0.61851 -4.58985,1.85547 -1.1198,1.237 -1.67969,2.92319 -1.67968,5.05859 l 0,12.36329 -3.61328,0 0,-30.39063 3.61328,0 0,11.91406 c 0.85936,-1.31508 1.86848,-2.29815 3.02734,-2.94922 1.17186,-0.65102 2.51952,-0.97654 4.04297,-0.97656 2.513,2e-5 4.41404,0.78127 5.70312,2.34375 1.28905,1.5495 1.93358,3.83465 1.9336,6.85547"
         style=""
         id="path8383" />
      <path
         d="m -717.3786,155.09644 3.59375,0 0,21.875 -3.59375,0 0,-21.875 m 0,-8.51563 3.59375,0 0,4.55078 -3.59375,0 0,-4.55078"
         style=""
         id="path8385" />
      <path
         d="m -708.86298,155.09644 3.8086,0 6.83594,18.35937 6.83593,-18.35937 3.8086,0 -8.20313,21.875 -4.88281,0 -8.20313,-21.875"
         style=""
         id="path8387" />
      <path
         d="m -674.13641,157.61597 c -1.9271,2e-5 -3.45053,0.75522 -4.57032,2.26562 -1.11979,1.49741 -1.67969,3.5547 -1.67968,6.17188 -1e-5,2.61719 0.55338,4.68099 1.66015,6.1914 1.11979,1.4974 2.64973,2.2461 4.58985,2.2461 1.91404,0 3.43097,-0.75521 4.55078,-2.26563 1.11977,-1.51041 1.67967,-3.5677 1.67969,-6.17187 -2e-5,-2.59114 -0.55992,-4.64191 -1.67969,-6.15235 -1.11981,-1.52342 -2.63674,-2.28513 -4.55078,-2.28515 m 0,-3.04688 c 3.12498,2e-5 5.57941,1.01565 7.36328,3.04688 1.78383,2.03126 2.67576,4.84376 2.67578,8.4375 -2e-5,3.58073 -0.89195,6.39323 -2.67578,8.4375 -1.78387,2.03125 -4.2383,3.04687 -7.36328,3.04687 -3.13803,0 -5.59897,-1.01562 -7.38282,-3.04687 -1.77083,-2.04427 -2.65625,-4.85677 -2.65625,-8.4375 0,-3.59374 0.88542,-6.40624 2.65625,-8.4375 1.78385,-2.03123 4.24479,-3.04686 7.38282,-3.04688"
         style=""
         id="path8389" />
      <path
         d="m -644.21454,155.74097 0,3.39843 c -1.01564,-0.52081 -2.07033,-0.91144 -3.16406,-1.17187 -1.09376,-0.2604 -2.22658,-0.39061 -3.39844,-0.39063 -1.78386,2e-5 -3.12501,0.27346 -4.02344,0.82032 -0.88542,0.54689 -1.32813,1.3672 -1.32812,2.46093 -10e-6,0.83335 0.319,1.4909 0.95703,1.97266 0.63801,0.46876 1.92056,0.91798 3.84766,1.34766 l 1.23047,0.27343 c 2.55206,0.54689 4.36196,1.32163 5.42968,2.32422 1.08071,0.9896 1.62108,2.37631 1.6211,4.16016 -2e-5,2.03125 -0.80731,3.63932 -2.42188,4.82422 -1.60158,1.18489 -3.8086,1.77734 -6.62109,1.77734 -1.17189,0 -2.39584,-0.11719 -3.67188,-0.35156 -1.26302,-0.22135 -2.59766,-0.5599 -4.0039,-1.01563 l 0,-3.71093 c 1.32812,0.6901 2.63671,1.21094 3.92578,1.5625 1.28905,0.33854 2.56509,0.50781 3.82812,0.50781 1.6927,0 2.99478,-0.28646 3.90625,-0.85938 0.91145,-0.58593 1.36717,-1.40624 1.36719,-2.46093 -2e-5,-0.97656 -0.33205,-1.72526 -0.99609,-2.2461 -0.65106,-0.52082 -2.08986,-1.02212 -4.31641,-1.5039 l -1.25,-0.29297 c -2.22657,-0.46874 -3.83464,-1.18489 -4.82422,-2.14844 -0.98958,-0.97655 -1.48438,-2.31118 -1.48437,-4.00391 -1e-5,-2.05727 0.72916,-3.64581 2.1875,-4.76562 1.45832,-1.11977 3.52863,-1.67967 6.21093,-1.67969 1.32812,2e-5 2.57812,0.0977 3.75,0.29297 1.17186,0.19533 2.25259,0.4883 3.24219,0.87891"
         style=""
         id="path8391" />
    </g>
    <rect
       style="fill:#ffffff;stroke:#000000;stroke-width:1.55554283;stroke-miterlimit:4;stroke-dasharray:none"
       id="rect7816-5"
       width="262.85715"
       height="129.65987"
       x="-73.362198"
       y="72.747742" />
    <rect
       style="fill:#ffffff;stroke:#000000;stroke-width:1.54143727;stroke-miterlimit:4;stroke-dasharray:none"
       id="rect7818-0"
       width="263.5553"
       height="130.39401"
       x="197.77705"
       y="71.918121" />
    <g
       style="font-size:40px;font-style:normal;font-weight:normal;text-align:center;line-height:125%;letter-spacing:0px;word-spacing:0px;text-anchor:middle;fill:#000000;fill-opacity:1;stroke:none;font-family:Sans"
       id="text7806-2">
      <path
         d="m -10.896351,94.405128 0,4.160157 c -1.328149,-1.236955 -2.747419,-2.161434 -4.257812,-2.773438 -1.497416,-0.611953 -3.092467,-0.917942 -4.785157,-0.917969 -3.333346,2.7e-5 -5.885427,1.022161 -7.65625,3.066407 -1.77084,2.031271 -2.656256,4.973975 -2.65625,8.828125 -6e-6,3.84116 0.88541,6.78386 2.65625,8.82812 1.770823,2.03126 4.322904,3.04688 7.65625,3.04688 1.69269,0 3.287741,-0.30599 4.785157,-0.91797 1.510393,-0.61197 2.929663,-1.53645 4.257812,-2.77344 l 0,4.1211 c -1.380233,0.9375 -2.845075,1.64062 -4.394531,2.10937 -1.536478,0.46875 -3.164081,0.70313 -4.882813,0.70313 -4.414074,0 -7.890633,-1.34766 -10.429687,-4.04297 -2.539066,-2.70833 -3.808596,-6.39973 -3.808594,-11.07422 -2e-6,-4.68748 1.269528,-8.378884 3.808594,-11.074219 2.539054,-2.708305 6.015613,-4.06247 10.429687,-4.0625 1.744774,3e-5 3.385397,0.234404 4.921875,0.703125 1.549457,0.455758 3.001278,1.145861 4.355469,2.070312"
         style=""
         id="path8299" />
      <path
         d="m 5.0216179,110.3231 c -2.9036567,1e-5 -4.91537339,0.33204 -6.0351563,0.99609 -1.1197982,0.66407 -1.6796935,1.79688 -1.6796875,3.39844 -6e-6,1.27605 0.4166603,2.29167 1.25,3.04687 0.84634611,0.74219 1.9921783,1.11329 3.4375,1.11328 1.9921749,1e-5 3.5872254,-0.70312 4.7851563,-2.10937 1.2109208,-1.41927 1.816389,-3.30077 1.8164062,-5.64453 l 0,-0.80078 -3.5742187,0 m 7.1679691,-1.48438 0,12.48047 -3.5937504,0 0,-3.32031 c -0.8203289,1.32813 -1.8424633,2.3112 -3.0664062,2.94922 -1.2239713,0.625 -2.7213657,0.9375 -4.4921875,0.9375 -2.2395908,0 -4.0234432,-0.625 -5.3515625,-1.875 -1.3151072,-1.26302 -1.9726587,-2.94922 -1.9726563,-5.0586 -2.4e-6,-2.46093 0.8203093,-4.31639 2.4609375,-5.5664 1.6536394,-1.24999 4.11457439,-1.87499 7.3828125,-1.875 l 5.0390625,0 0,-0.35157 c -1.72e-5,-1.65363 -0.5468917,-2.92967 -1.640625,-3.82812 -1.0807437,-0.91144 -2.6041797,-1.36717 -4.5703125,-1.36719 -1.2500098,2e-5 -2.46745648,0.14976 -3.6523437,0.44922 -1.1849021,0.2995 -2.3242239,0.74872 -3.4179688,1.34766 l 0,-3.32032 c 1.3150989,-0.507786 2.5911393,-0.88539 3.82812504,-1.132808 1.2369701,-0.260394 2.44139596,-0.390602 3.61328126,-0.390625 3.1640479,2.3e-5 5.5273268,0.820334 7.0898437,2.460933 1.5624804,1.64065 2.3437294,4.12762 2.3437504,7.46094"
         style=""
         id="path8301" />
      <path
         d="m 35.314587,110.40122 c -2e-5,-2.64321 -0.546894,-4.71352 -1.640625,-6.21094 -1.080746,-1.51039 -2.57163,-2.2656 -4.472657,-2.26562 -1.901053,2e-5 -3.398447,0.75523 -4.492187,2.26562 -1.080737,1.49742 -1.621101,3.56773 -1.621094,6.21094 -7e-6,2.64324 0.540357,4.72006 1.621094,6.23047 1.09374,1.4974 2.591134,2.2461 4.492187,2.24609 1.901027,1e-5 3.391911,-0.74869 4.472657,-2.24609 1.093731,-1.51041 1.640605,-3.58723 1.640625,-6.23047 M 23.088024,102.7645 c 0.7552,-1.30206 1.70572,-2.2656 2.851563,-2.890622 1.158843,-0.637998 2.53905,-0.957008 4.140625,-0.957031 2.656233,2.3e-5 4.811179,1.054709 6.464843,3.164063 1.666645,2.10939 2.499977,4.88283 2.5,8.32031 -2.3e-5,3.43751 -0.833355,6.21094 -2.5,8.32031 -1.653664,2.10938 -3.80861,3.16407 -6.464843,3.16407 -1.601575,0 -2.981782,-0.3125 -4.140625,-0.9375 -1.145843,-0.63802 -2.096363,-1.60807 -2.851563,-2.91016 l 0,3.28125 -3.613281,0 0,-30.390624 3.613281,0 0,11.835934"
         style=""
         id="path8303" />
      <path
         d="m 63.713024,109.48325 0,1.75782 -16.523437,0 c 0.156244,2.47396 0.89843,4.36198 2.226562,5.66406 1.341136,1.28906 3.203114,1.93359 5.585938,1.93359 1.380193,0 2.714827,-0.16927 4.003906,-0.50781 1.302064,-0.33854 2.591125,-0.84635 3.867187,-1.52344 l 0,3.39844 c -1.289082,0.54688 -2.610696,0.96354 -3.964843,1.25 -1.354183,0.28646 -2.72788,0.42969 -4.121094,0.42969 -3.489594,0 -6.256518,-1.01563 -8.300781,-3.04688 -2.031254,-2.03124 -3.046878,-4.77864 -3.046875,-8.24219 -3e-6,-3.58071 0.963538,-6.41925 2.890625,-8.51562 1.940097,-2.109354 4.550771,-3.16404 7.832031,-3.164063 2.942692,2.3e-5 5.266909,0.950543 6.972656,2.851563 1.718729,1.88804 2.578103,4.45965 2.578125,7.71484 m -3.59375,-1.05468 c -0.02606,-1.96613 -0.579445,-3.53514 -1.660156,-4.70704 -1.067725,-1.17185 -2.486994,-1.75779 -4.257813,-1.75781 -2.005219,2e-5 -3.61329,0.56643 -4.824218,1.69922 -1.197924,1.13283 -1.888027,2.72788 -2.070313,4.78516 l 12.8125,-0.0195"
         style=""
         id="path8305" />
      <path
         d="m 85.353649,100.28403 0,3.35938 c -1.015643,-0.55988 -2.037778,-0.97654 -3.066406,-1.25 -1.015641,-0.28644 -2.044285,-0.42967 -3.085938,-0.42969 -2.33074,2e-5 -4.140634,0.74221 -5.429687,2.22656 -1.289069,1.47137 -1.9336,3.54168 -1.933594,6.21094 -6e-6,2.66928 0.644525,4.7461 1.933594,6.23047 1.289053,1.47136 3.098947,2.20703 5.429687,2.20703 1.041653,0 2.070297,-0.13671 3.085938,-0.41015 1.028628,-0.28646 2.050763,-0.70964 3.066406,-1.26954 l 0,3.32032 c -1.002623,0.46875 -2.044288,0.82031 -3.125,1.05468 -1.067724,0.23438 -2.207045,0.35157 -3.417969,0.35157 -3.29428,0 -5.911465,-1.03516 -7.851562,-3.10547 -1.940107,-2.07031 -2.910159,-4.86328 -2.910156,-8.37891 -3e-6,-3.56769 0.976559,-6.37368 2.929687,-8.41797 1.966139,-2.044246 4.654938,-3.06638 8.066406,-3.066403 1.106757,2.3e-5 2.187485,0.11721 3.242188,0.351563 1.05467,0.221376 2.076804,0.559917 3.066406,1.01562"
         style=""
         id="path8307" />
      <path
         d="m 110.35365,109.48325 0,1.75782 -16.523438,0 c 0.156244,2.47396 0.89843,4.36198 2.226562,5.66406 1.341136,1.28906 3.203114,1.93359 5.585936,1.93359 1.38019,0 2.71483,-0.16927 4.00391,-0.50781 1.30206,-0.33854 2.59112,-0.84635 3.86719,-1.52344 l 0,3.39844 c -1.28909,0.54688 -2.6107,0.96354 -3.96485,1.25 -1.35418,0.28646 -2.72788,0.42969 -4.12109,0.42969 -3.489596,0 -6.25652,-1.01563 -8.300783,-3.04688 -2.031254,-2.03124 -3.046878,-4.77864 -3.046875,-8.24219 -3e-6,-3.58071 0.963538,-6.41925 2.890625,-8.51562 1.940097,-2.109354 4.550771,-3.16404 7.832033,-3.164063 2.94269,2.3e-5 5.26691,0.950543 6.97265,2.851563 1.71873,1.88804 2.57811,4.45965 2.57813,7.71484 m -3.59375,-1.05468 c -0.0261,-1.96613 -0.57945,-3.53514 -1.66016,-4.70704 -1.06772,-1.17185 -2.48699,-1.75779 -4.25781,-1.75781 -2.005219,2e-5 -3.61329,0.56643 -4.824218,1.69922 -1.197924,1.13283 -1.888027,2.72788 -2.070313,4.78516 l 12.812501,-0.0195"
         style=""
         id="path8309" />
      <path
         d="m 128.92787,102.80357 c -0.40366,-0.23436 -0.84637,-0.40363 -1.32813,-0.50782 -0.46876,-0.11716 -0.98959,-0.17576 -1.5625,-0.17578 -2.03126,2e-5 -3.59376,0.66408 -4.6875,1.99219 -1.08073,1.31512 -1.6211,3.20965 -1.62109,5.68359 l 0,11.52344 -3.61328,0 0,-21.874999 3.61328,0 0,3.398439 c 0.7552,-1.32811 1.73827,-2.31118 2.94922,-2.94922 1.21092,-0.65102 2.68228,-0.97654 4.41406,-0.976563 0.24738,2.3e-5 0.52082,0.01955 0.82031,0.05859 0.29947,0.02606 0.6315,0.07164 0.9961,0.136719 l 0.0195,3.69141"
         style=""
         id="path8311" />
      <path
         d="m 142.67787,110.3231 c -2.90366,1e-5 -4.91538,0.33204 -6.03516,0.99609 -1.1198,0.66407 -1.67969,1.79688 -1.67969,3.39844 0,1.27605 0.41666,2.29167 1.25,3.04687 0.84635,0.74219 1.99218,1.11329 3.4375,1.11328 1.99218,1e-5 3.58723,-0.70312 4.78516,-2.10937 1.21092,-1.41927 1.81639,-3.30077 1.81641,-5.64453 l 0,-0.80078 -3.57422,0 m 7.16797,-1.48438 0,12.48047 -3.59375,0 0,-3.32031 c -0.82033,1.32813 -1.84247,2.3112 -3.06641,2.94922 -1.22397,0.625 -2.72137,0.9375 -4.49219,0.9375 -2.23959,0 -4.02344,-0.625 -5.35156,-1.875 -1.31511,-1.26302 -1.97266,-2.94922 -1.97266,-5.0586 0,-2.46093 0.82031,-4.31639 2.46094,-5.5664 1.65364,-1.24999 4.11458,-1.87499 7.38281,-1.875 l 5.03907,0 0,-0.35157 c -2e-5,-1.65363 -0.5469,-2.92967 -1.64063,-3.82812 -1.08074,-0.91144 -2.60418,-1.36717 -4.57031,-1.36719 -1.25001,2e-5 -2.46746,0.14976 -3.65234,0.44922 -1.18491,0.2995 -2.32423,0.74872 -3.41797,1.34766 l 0,-3.32032 c 1.3151,-0.507786 2.59114,-0.88539 3.82812,-1.132808 1.23697,-0.260394 2.4414,-0.390602 3.61328,-0.390625 3.16405,2.3e-5 5.52733,0.820334 7.08985,2.460933 1.56248,1.64065 2.34373,4.12762 2.34375,7.46094"
         style=""
         id="path8313" />
    </g>
    <g
       style="font-size:40px;font-style:normal;font-weight:normal;text-align:center;line-height:125%;letter-spacing:0px;word-spacing:0px;text-anchor:middle;fill:#000000;fill-opacity:1;stroke:none;font-family:Sans"
       id="text7875-3">
      <path
         d="m -52.26955,158.58032 0,-11.83594 3.59375,0 0,30.39063 -3.59375,0 0,-3.28125 c -0.755226,1.30209 -1.712256,2.27214 -2.871094,2.91016 -1.145848,0.625 -2.526055,0.9375 -4.140625,0.9375 -2.643238,0 -4.798184,-1.05469 -6.464844,-3.16407 -1.653649,-2.10937 -2.480471,-4.8828 -2.480469,-8.32031 -2e-6,-3.43748 0.82682,-6.21092 2.480469,-8.32031 1.66666,-2.10936 3.821606,-3.16404 6.464844,-3.16406 1.61457,2e-5 2.994777,0.31903 4.140625,0.95703 1.158838,0.62502 2.115868,1.58856 2.871094,2.89062 m -12.246094,7.63672 c -6e-6,2.64324 0.540358,4.72006 1.621094,6.23047 1.093741,1.4974 2.591135,2.2461 4.492187,2.24609 1.901028,1e-5 3.398422,-0.74869 4.492188,-2.24609 1.093732,-1.51041 1.640607,-3.58723 1.640625,-6.23047 -1.8e-5,-2.64321 -0.546893,-4.71353 -1.640625,-6.21094 -1.093766,-1.51039 -2.59116,-2.2656 -4.492188,-2.26562 -1.901052,2e-5 -3.398446,0.75523 -4.492187,2.26562 -1.080736,1.49741 -1.6211,3.56773 -1.621094,6.21094"
         style=""
         id="path8276" />
      <path
         d="m -22.562519,165.29907 0,1.75781 -16.523438,0 c 0.156244,2.47397 0.898431,4.36199 2.226563,5.66407 1.341136,1.28906 3.203114,1.93359 5.585937,1.93359 1.380194,0 2.714828,-0.16927 4.003907,-0.50781 1.302064,-0.33854 2.591125,-0.84635 3.867187,-1.52344 l 0,3.39844 c -1.289083,0.54687 -2.610696,0.96354 -3.964844,1.25 -1.354183,0.28646 -2.727879,0.42969 -4.121093,0.42969 -3.489594,0 -6.256518,-1.01563 -8.300782,-3.04688 -2.031253,-2.03124 -3.046877,-4.77864 -3.046875,-8.24219 -2e-6,-3.58071 0.963539,-6.41925 2.890625,-8.51562 1.940098,-2.10936 4.550772,-3.16404 7.832032,-3.16406 2.942692,2e-5 5.266909,0.95054 6.972656,2.85156 1.718728,1.88804 2.578102,4.45965 2.578125,7.71484 m -3.59375,-1.05469 c -0.02606,-1.96613 -0.579445,-3.53514 -1.660156,-4.70703 -1.067725,-1.17185 -2.486994,-1.75779 -4.257813,-1.75781 -2.005219,2e-5 -3.61329,0.56643 -4.824219,1.69922 -1.197923,1.13283 -1.888027,2.72788 -2.070312,4.78516 l 12.8125,-0.0195"
         style=""
         id="path8278" />
      <path
         d="m -16.664082,146.74438 3.59375,0 0,30.39063 -3.59375,0 0,-30.39063"
         style=""
         id="path8280" />
      <path
         d="m 17.10545,166.13892 c -2.903657,10e-6 -4.915374,0.33204 -6.035157,0.99609 -1.1197978,0.66407 -1.6796931,1.79688 -1.6796871,3.39844 -6e-6,1.27604 0.4166603,2.29167 1.2500001,3.04687 0.846346,0.74219 1.992178,1.11329 3.4375,1.11328 1.992175,1e-5 3.587225,-0.70312 4.785156,-2.10937 1.210921,-1.41927 1.816389,-3.30077 1.816406,-5.64453 l 0,-0.80078 -3.574218,0 m 7.167968,-1.48438 0,12.48047 -3.59375,0 0,-3.32031 c -0.820329,1.32812 -1.842463,2.3112 -3.066406,2.94922 -1.223971,0.625 -2.721365,0.9375 -4.492187,0.9375 -2.239591,0 -4.0234435,-0.625 -5.3515628,-1.875 -1.3151073,-1.26302 -1.9726587,-2.94922 -1.9726563,-5.0586 -2.4e-6,-2.46093 0.8203093,-4.31639 2.4609375,-5.5664 1.6536393,-1.24999 4.1145746,-1.87499 7.3828126,-1.875 l 5.039062,0 0,-0.35157 c -1.7e-5,-1.65363 -0.546891,-2.92967 -1.640625,-3.82812 -1.080743,-0.91144 -2.604179,-1.36717 -4.570312,-1.36719 -1.25001,2e-5 -2.467457,0.14976 -3.652344,0.44922 -1.1849019,0.2995 -2.3242237,0.74872 -3.4179686,1.34766 l 0,-3.32032 c 1.3150989,-0.50779 2.5911393,-0.88539 3.8281246,-1.13281 1.236971,-0.26039 2.441396,-0.3906 3.613282,-0.39062 3.164048,2e-5 5.527326,0.82033 7.089843,2.46093 1.56248,1.64065 2.34373,4.12762 2.34375,7.46094"
         style=""
         id="path8282" />
      <path
         d="m 44.371075,158.61938 c -0.403662,-0.23435 -0.84637,-0.40362 -1.328125,-0.50781 -0.468765,-0.11717 -0.989598,-0.17576 -1.5625,-0.17578 -2.031262,2e-5 -3.59376,0.66408 -4.6875,1.99219 -1.080737,1.31512 -1.621101,3.20965 -1.621094,5.68359 l 0,11.52344 -3.613281,0 0,-21.875 3.613281,0 0,3.39844 c 0.7552,-1.32811 1.738272,-2.31118 2.949219,-2.94922 1.210926,-0.65102 2.682278,-0.97654 4.414062,-0.97656 0.247381,2e-5 0.520818,0.0195 0.820313,0.0586 0.299463,0.0261 0.631494,0.0716 0.996093,0.13672 l 0.01953,3.6914"
         style=""
         id="path8284" />
      <path
         d="m 63.062481,156.09985 0,3.35938 c -1.015644,-0.55988 -2.037778,-0.97655 -3.066406,-1.25 -1.015641,-0.28644 -2.044286,-0.42967 -3.085938,-0.42969 -2.33074,2e-5 -4.140634,0.74221 -5.429687,2.22656 -1.289069,1.47137 -1.9336,3.54168 -1.933594,6.21094 -6e-6,2.66928 0.644525,4.7461 1.933594,6.23047 1.289053,1.47136 3.098947,2.20703 5.429687,2.20703 1.041652,0 2.070297,-0.13672 3.085938,-0.41016 1.028628,-0.28645 2.050762,-0.70963 3.066406,-1.26953 l 0,3.32032 c -1.002623,0.46875 -2.044288,0.82031 -3.125,1.05468 -1.067724,0.23438 -2.207046,0.35157 -3.417969,0.35157 -3.29428,0 -5.911465,-1.03516 -7.851562,-3.10547 -1.940108,-2.07031 -2.910159,-4.86328 -2.910157,-8.37891 -2e-6,-3.56769 0.97656,-6.37368 2.929688,-8.41797 1.966139,-2.04425 4.654938,-3.06638 8.066406,-3.0664 1.106757,2e-5 2.187485,0.11721 3.242188,0.35156 1.05467,0.22137 2.076804,0.55992 3.066406,1.01562"
         style=""
         id="path8286" />
      <path
         d="m 87.535137,163.93188 0,13.20313 -3.59375,0 0,-13.08594 c -1.8e-5,-2.0703 -0.403664,-3.61977 -1.210937,-4.64844 -0.807308,-1.02862 -2.018245,-1.54294 -3.632813,-1.54296 -1.940116,2e-5 -3.470062,0.6185 -4.589844,1.85546 -1.119799,1.237 -1.679694,2.9232 -1.679687,5.0586 l 0,12.36328 -3.613281,0 0,-30.39063 3.613281,0 0,11.91407 c 0.859367,-1.31509 1.86848,-2.29816 3.027344,-2.94922 1.171863,-0.65102 2.519518,-0.97654 4.042968,-0.97656 2.513004,2e-5 4.414044,0.78127 5.703125,2.34375 1.289042,1.54949 1.933572,3.83465 1.933594,6.85546"
         style=""
         id="path8288" />
      <path
         d="m 94.742168,155.26001 3.59375,0 0,21.875 -3.59375,0 0,-21.875 m 0,-8.51563 3.59375,0 0,4.55079 -3.59375,0 0,-4.55079"
         style=""
         id="path8290" />
      <path
         d="m 103.25779,155.26001 3.8086,0 6.83593,18.35937 6.83594,-18.35937 3.8086,0 -8.20313,21.875 -4.88281,0 -8.20313,-21.875"
         style=""
         id="path8292" />
      <path
         d="m 137.98436,157.77954 c -1.9271,2e-5 -3.45053,0.75523 -4.57032,2.26563 -1.11979,1.49741 -1.67969,3.5547 -1.67968,6.17187 -1e-5,2.6172 0.55337,4.681 1.66015,6.19141 1.11979,1.4974 2.64973,2.24609 4.58985,2.24609 1.91404,0 3.43097,-0.7552 4.55078,-2.26562 1.11977,-1.51041 1.67967,-3.5677 1.67968,-6.17188 -1e-5,-2.59113 -0.55991,-4.64191 -1.67968,-6.15234 -1.11981,-1.52342 -2.63674,-2.28514 -4.55078,-2.28516 m 0,-3.04687 c 3.12498,2e-5 5.57941,1.01564 7.36328,3.04687 1.78383,2.03127 2.67576,4.84377 2.67578,8.4375 -2e-5,3.58074 -0.89195,6.39323 -2.67578,8.4375 -1.78387,2.03125 -4.2383,3.04688 -7.36328,3.04688 -3.13803,0 -5.59897,-1.01563 -7.38282,-3.04688 -1.77083,-2.04427 -2.65625,-4.85676 -2.65625,-8.4375 0,-3.59373 0.88542,-6.40623 2.65625,-8.4375 1.78385,-2.03123 4.24479,-3.04685 7.38282,-3.04687"
         style=""
         id="path8294" />
      <path
         d="m 170.60154,173.8147 13.76953,0 0,3.32031 -18.51562,0 0,-3.32031 c 1.49739,-1.54948 3.53515,-3.6263 6.11328,-6.23047 2.59114,-2.61718 4.21874,-4.30337 4.88281,-5.0586 1.26301,-1.41925 2.14191,-2.61717 2.63672,-3.59375 0.5078,-0.98956 0.7617,-1.95961 0.76172,-2.91015 -2e-5,-1.54946 -0.54689,-2.81248 -1.64062,-3.78906 -1.08075,-0.97654 -2.49351,-1.46482 -4.23829,-1.46485 -1.23698,3e-5 -2.54558,0.21487 -3.92578,0.64453 -1.36719,0.42972 -2.83203,1.08076 -4.39453,1.95313 l 0,-3.98438 c 1.58854,-0.63799 3.07291,-1.11976 4.45313,-1.44531 1.3802,-0.32549 2.64322,-0.48825 3.78906,-0.48828 3.02082,3e-5 5.42967,0.75524 7.22656,2.26562 1.79686,1.51045 2.69529,3.52867 2.69531,6.05469 -2e-5,1.19794 -0.22788,2.33726 -0.68359,3.41797 -0.44273,1.06773 -1.25653,2.33075 -2.44141,3.78906 -0.32553,0.37762 -1.36069,1.47137 -3.10546,3.28125 -1.74481,1.79689 -4.20574,4.31642 -7.38282,7.5586"
         style=""
         id="path8296" />
    </g>
    <g
       style="font-size:40px;font-style:normal;font-weight:normal;text-align:center;line-height:125%;letter-spacing:0px;word-spacing:0px;text-anchor:middle;fill:#000000;fill-opacity:1;stroke:none;font-family:Sans"
       id="text7881-8">
      <path
         d="m 252.46771,122.60408 -5.35156,14.51172 10.72266,0 -5.3711,-14.51172 m -2.22656,-3.88672 4.47266,0 11.11328,29.16016 -4.10157,0 -2.65625,-7.48047 -13.14453,0 -2.65625,7.48047 -4.16015,0 11.13281,-29.16016"
         style=""
         id="path8259" />
      <path
         d="m 282.5849,129.36189 c -0.40366,-0.23435 -0.84637,-0.40362 -1.32813,-0.50781 -0.46876,-0.11717 -0.98959,-0.17576 -1.5625,-0.17578 -2.03126,2e-5 -3.59376,0.66408 -4.6875,1.99219 -1.08073,1.31512 -1.6211,3.20965 -1.62109,5.68359 l 0,11.52344 -3.61328,0 0,-21.875 3.61328,0 0,3.39844 c 0.7552,-1.32811 1.73827,-2.31118 2.94922,-2.94922 1.21093,-0.65102 2.68228,-0.97654 4.41406,-0.97657 0.24738,3e-5 0.52082,0.0196 0.82031,0.0586 0.29947,0.0261 0.6315,0.0716 0.9961,0.13672 l 0.0195,3.6914"
         style=""
         id="path8261" />
      <path
         d="m 301.27631,126.84236 0,3.35938 c -1.01565,-0.55988 -2.03778,-0.97655 -3.06641,-1.25 -1.01564,-0.28644 -2.04429,-0.42967 -3.08594,-0.42969 -2.33074,2e-5 -4.14063,0.74221 -5.42969,2.22656 -1.28906,1.47137 -1.93359,3.54168 -1.93359,6.21094 0,2.66928 0.64453,4.7461 1.93359,6.23047 1.28906,1.47136 3.09895,2.20703 5.42969,2.20703 1.04165,0 2.0703,-0.13672 3.08594,-0.41016 1.02863,-0.28645 2.05076,-0.70963 3.06641,-1.26953 l 0,3.32031 c -1.00263,0.46875 -2.04429,0.82032 -3.125,1.05469 -1.06773,0.23438 -2.20705,0.35156 -3.41797,0.35156 -3.29428,0 -5.91147,-1.03515 -7.85157,-3.10546 -1.9401,-2.07031 -2.91015,-4.86328 -2.91015,-8.37891 0,-3.56769 0.97656,-6.37368 2.92969,-8.41797 1.96613,-2.04425 4.65493,-3.06638 8.0664,-3.06641 1.10676,3e-5 2.18749,0.11721 3.24219,0.35157 1.05467,0.22137 2.0768,0.55991 3.06641,1.01562"
         style=""
         id="path8263" />
      <path
         d="m 325.74896,134.67439 0,13.20313 -3.59375,0 0,-13.08594 c -2e-5,-2.0703 -0.40366,-3.61977 -1.21094,-4.64844 -0.8073,-1.02862 -2.01824,-1.54295 -3.63281,-1.54297 -1.94011,2e-5 -3.47006,0.61851 -4.58984,1.85547 -1.1198,1.237 -1.6797,2.92319 -1.67969,5.0586 l 0,12.36328 -3.61328,0 0,-30.39063 3.61328,0 0,11.91407 c 0.85937,-1.31509 1.86848,-2.29816 3.02734,-2.94922 1.17187,-0.65102 2.51952,-0.97654 4.04297,-0.97657 2.51301,3e-5 4.41405,0.78128 5.70313,2.34375 1.28904,1.5495 1.93357,3.83466 1.93359,6.85547"
         style=""
         id="path8265" />
      <path
         d="m 332.95599,126.00252 3.59375,0 0,21.875 -3.59375,0 0,-21.875 m 0,-8.51563 3.59375,0 0,4.55078 -3.59375,0 0,-4.55078"
         style=""
         id="path8267" />
      <path
         d="m 341.47162,126.00252 3.80859,0 6.83594,18.35937 6.83594,-18.35937 3.80859,0 -8.20312,21.875 -4.88282,0 -8.20312,-21.875"
         style=""
         id="path8269" />
      <path
         d="m 376.19818,128.52205 c -1.92709,2e-5 -3.45053,0.75523 -4.57031,2.26562 -1.1198,1.49742 -1.67969,3.5547 -1.67969,6.17188 0,2.61719 0.55338,4.68099 1.66016,6.19141 1.11978,1.49739 2.64973,2.24609 4.58984,2.24609 1.91405,0 3.43098,-0.75521 4.55078,-2.26563 1.11978,-1.51041 1.67967,-3.5677 1.67969,-6.17187 -2e-5,-2.59113 -0.55991,-4.64191 -1.67969,-6.15234 -1.1198,-1.52342 -2.63673,-2.28514 -4.55078,-2.28516 m 0,-3.04688 c 3.12499,3e-5 5.57941,1.01565 7.36328,3.04688 1.78384,2.03127 2.67576,4.84376 2.67578,8.4375 -2e-5,3.58074 -0.89194,6.39323 -2.67578,8.4375 -1.78387,2.03125 -4.23829,3.04687 -7.36328,3.04687 -3.13803,0 -5.59896,-1.01562 -7.38281,-3.04687 -1.77084,-2.04427 -2.65625,-4.85676 -2.65625,-8.4375 0,-3.59374 0.88541,-6.40623 2.65625,-8.4375 1.78385,-2.03123 4.24478,-3.04685 7.38281,-3.04688"
         style=""
         id="path8271" />
      <path
         d="m 408.81537,144.55721 13.76953,0 0,3.32031 -18.51563,0 0,-3.32031 c 1.4974,-1.54948 3.53515,-3.6263 6.11329,-6.23047 2.59113,-2.61718 4.21873,-4.30338 4.88281,-5.0586 1.263,-1.41925 2.14191,-2.61717 2.63672,-3.59375 0.50779,-0.98956 0.7617,-1.95961 0.76172,-2.91015 -2e-5,-1.54946 -0.5469,-2.81248 -1.64063,-3.78907 -1.08074,-0.97653 -2.4935,-1.46481 -4.23828,-1.46484 -1.23699,3e-5 -2.54558,0.21487 -3.92578,0.64453 -1.3672,0.42971 -2.83204,1.08076 -4.39453,1.95313 l 0,-3.98438 c 1.58853,-0.63799 3.07291,-1.11976 4.45312,-1.44531 1.3802,-0.32549 2.64322,-0.48825 3.78906,-0.48828 3.02082,3e-5 5.42968,0.75523 7.22657,2.26562 1.79685,1.51045 2.69529,3.52867 2.69531,6.05469 -2e-5,1.19794 -0.22789,2.33726 -0.68359,3.41797 -0.44273,1.06772 -1.25653,2.33074 -2.44141,3.78906 -0.32554,0.37762 -1.36069,1.47137 -3.10547,3.28125 -1.7448,1.79689 -4.20574,4.31641 -7.38281,7.5586"
         style=""
         id="path8273" />
    </g>
    <rect
       style="fill:#ffffff;stroke:#000000;stroke-width:1.54900002;stroke-miterlimit:4;stroke-dasharray:none"
       id="rect7816-5-1"
       width="262.85715"
       height="128.57143"
       x="465.97839"
       y="72.233452" />
    <rect
       style="fill:#ffffff;stroke:#000000;stroke-width:1.54143727;stroke-miterlimit:4;stroke-dasharray:none"
       id="rect7818-0-1"
       width="263.5553"
       height="130.39401"
       x="737.11768"
       y="71.403831" />
    <g
       style="font-size:40px;font-style:normal;font-weight:normal;text-align:center;line-height:125%;letter-spacing:0px;word-spacing:0px;text-anchor:middle;fill:#000000;fill-opacity:1;stroke:none;font-family:Sans"
       id="text7806-2-0">
      <path
         d="m 528.44427,93.890846 0,4.160157 c -1.32814,-1.236956 -2.74741,-2.161434 -4.25781,-2.773438 -1.49741,-0.611953 -3.09246,-0.917942 -4.78515,-0.917969 -3.33335,2.7e-5 -5.88543,1.022161 -7.65625,3.066407 -1.77084,2.031271 -2.65626,4.973977 -2.65625,8.828127 -1e-5,3.84115 0.88541,6.78386 2.65625,8.82812 1.77082,2.03126 4.3229,3.04688 7.65625,3.04688 1.69269,0 3.28774,-0.30599 4.78515,-0.91797 1.5104,-0.61198 2.92967,-1.53645 4.25781,-2.77344 l 0,4.1211 c -1.38023,0.9375 -2.84507,1.64062 -4.39453,2.10937 -1.53647,0.46875 -3.16408,0.70312 -4.88281,0.70313 -4.41407,-1e-5 -7.89063,-1.34766 -10.42969,-4.04297 -2.53906,-2.70833 -3.80859,-6.39973 -3.80859,-11.07422 0,-4.68748 1.26953,-8.378886 3.80859,-11.074221 2.53906,-2.708305 6.01562,-4.062471 10.42969,-4.0625 1.74477,2.9e-5 3.3854,0.234404 4.92188,0.703125 1.54945,0.455757 3.00127,1.145861 4.35546,2.070312"
         style=""
         id="path8242" />
      <path
         d="m 544.36224,109.80882 c -2.90365,1e-5 -4.91537,0.33204 -6.03515,0.99609 -1.1198,0.66407 -1.6797,1.79688 -1.67969,3.39844 -10e-6,1.27604 0.41666,2.29167 1.25,3.04687 0.84635,0.74219 1.99218,1.11328 3.4375,1.11328 1.99217,0 3.58723,-0.70312 4.78516,-2.10937 1.21092,-1.41927 1.81639,-3.30078 1.8164,-5.64453 l 0,-0.80078 -3.57422,0 m 7.16797,-1.48438 0,12.48047 -3.59375,0 0,-3.32031 c -0.82033,1.32812 -1.84246,2.3112 -3.0664,2.94922 -1.22398,0.62499 -2.72137,0.93749 -4.49219,0.9375 -2.23959,-1e-5 -4.02344,-0.625 -5.35156,-1.875 -1.31511,-1.26302 -1.97266,-2.94922 -1.97266,-5.0586 0,-2.46093 0.82031,-4.31639 2.46094,-5.5664 1.65364,-1.24999 4.11457,-1.87499 7.38281,-1.875 l 5.03906,0 0,-0.35157 c -10e-6,-1.65363 -0.54689,-2.92967 -1.64062,-3.82812 -1.08075,-0.91144 -2.60418,-1.36717 -4.57032,-1.36719 -1.25,2e-5 -2.46745,0.14976 -3.65234,0.44922 -1.1849,0.2995 -2.32422,0.74871 -3.41797,1.34766 l 0,-3.320317 c 1.3151,-0.507792 2.59114,-0.885395 3.82813,-1.132813 1.23697,-0.260394 2.44139,-0.390603 3.61328,-0.390625 3.16405,2.2e-5 5.52733,0.820334 7.08984,2.460935 1.56248,1.64065 2.34373,4.12762 2.34375,7.46094"
         style=""
         id="path8244" />
      <path
         d="m 574.65521,109.88694 c -2e-5,-2.64322 -0.54689,-4.71353 -1.64062,-6.21094 -1.08075,-1.5104 -2.57163,-2.2656 -4.47266,-2.26562 -1.90105,2e-5 -3.39845,0.75522 -4.49219,2.26562 -1.08073,1.49741 -1.6211,3.56772 -1.62109,6.21094 -10e-6,2.64324 0.54036,4.72006 1.62109,6.23047 1.09374,1.4974 2.59114,2.24609 4.49219,2.24609 1.90103,0 3.39191,-0.74869 4.47266,-2.24609 1.09373,-1.51041 1.6406,-3.58723 1.64062,-6.23047 m -12.22656,-7.63672 c 0.7552,-1.30206 1.70572,-2.265603 2.85156,-2.890624 1.15885,-0.637998 2.53905,-0.957009 4.14063,-0.957031 2.65623,2.2e-5 4.81118,1.054709 6.46484,3.164065 1.66665,2.10939 2.49998,4.88282 2.5,8.32031 -2e-5,3.43751 -0.83335,6.21094 -2.5,8.32031 -1.65366,2.10938 -3.80861,3.16406 -6.46484,3.16407 -1.60158,-1e-5 -2.98178,-0.31251 -4.14063,-0.9375 -1.14584,-0.63802 -2.09636,-1.60808 -2.85156,-2.91016 l 0,3.28125 -3.61328,0 0,-30.390626 3.61328,0 0,11.835936"
         style=""
         id="path8246" />
      <path
         d="m 603.05365,108.96897 0,1.75781 -16.52344,0 c 0.15625,2.47397 0.89843,4.36199 2.22656,5.66407 1.34114,1.28906 3.20312,1.93359 5.58594,1.93359 1.3802,0 2.71483,-0.16927 4.00391,-0.50781 1.30206,-0.33854 2.59112,-0.84635 3.86719,-1.52344 l 0,3.39844 c -1.28909,0.54687 -2.6107,0.96354 -3.96485,1.25 -1.35418,0.28646 -2.72788,0.42968 -4.12109,0.42969 -3.48959,-1e-5 -6.25652,-1.01563 -8.30078,-3.04688 -2.03126,-2.03125 -3.04688,-4.77864 -3.04688,-8.24219 0,-3.58071 0.96354,-6.41925 2.89063,-8.51562 1.94009,-2.109356 4.55077,-3.164043 7.83203,-3.164065 2.94269,2.2e-5 5.26691,0.950542 6.97265,2.851565 1.71873,1.88804 2.57811,4.45965 2.57813,7.71484 m -3.59375,-1.05469 c -0.0261,-1.96613 -0.57945,-3.53514 -1.66016,-4.70703 -1.06772,-1.17185 -2.48699,-1.75779 -4.25781,-1.75781 -2.00522,2e-5 -3.61329,0.56643 -4.82422,1.69922 -1.19792,1.13283 -1.88802,2.72788 -2.07031,4.78516 l 12.8125,-0.0195"
         style=""
         id="path8248" />
      <path
         d="m 624.69427,99.769753 0,3.359377 c -1.01564,-0.55988 -2.03777,-0.97655 -3.0664,-1.25 -1.01564,-0.28644 -2.04429,-0.42967 -3.08594,-0.42969 -2.33074,2e-5 -4.14063,0.74221 -5.42969,2.22656 -1.28907,1.47137 -1.9336,3.54168 -1.93359,6.21094 -10e-6,2.66928 0.64452,4.7461 1.93359,6.23047 1.28906,1.47136 3.09895,2.20703 5.42969,2.20703 1.04165,0 2.0703,-0.13672 3.08594,-0.41016 1.02863,-0.28645 2.05076,-0.70963 3.0664,-1.26953 l 0,3.32032 c -1.00262,0.46875 -2.04428,0.82031 -3.125,1.05468 -1.06772,0.23438 -2.20704,0.35156 -3.41796,0.35157 -3.29428,-1e-5 -5.91147,-1.03516 -7.85157,-3.10547 -1.9401,-2.07031 -2.91015,-4.86328 -2.91015,-8.37891 0,-3.56769 0.97656,-6.37368 2.92968,-8.41797 1.96614,-2.044248 4.65494,-3.066383 8.06641,-3.066405 1.10676,2.2e-5 2.18749,0.11721 3.24219,0.351563 1.05467,0.221375 2.0768,0.559917 3.0664,1.015625"
         style=""
         id="path8250" />
      <path
         d="m 649.69427,108.96897 0,1.75781 -16.52343,0 c 0.15624,2.47397 0.89843,4.36199 2.22656,5.66407 1.34114,1.28906 3.20311,1.93359 5.58594,1.93359 1.38019,0 2.71482,-0.16927 4.0039,-0.50781 1.30207,-0.33854 2.59113,-0.84635 3.86719,-1.52344 l 0,3.39844 c -1.28908,0.54687 -2.61069,0.96354 -3.96484,1.25 -1.35419,0.28646 -2.72788,0.42968 -4.1211,0.42969 -3.48959,-1e-5 -6.25651,-1.01563 -8.30078,-3.04688 -2.03125,-2.03125 -3.04687,-4.77864 -3.04687,-8.24219 0,-3.58071 0.96354,-6.41925 2.89062,-8.51562 1.9401,-2.109356 4.55077,-3.164043 7.83203,-3.164065 2.9427,2.2e-5 5.26691,0.950542 6.97266,2.851565 1.71873,1.88804 2.5781,4.45965 2.57812,7.71484 m -3.59375,-1.05469 c -0.0261,-1.96613 -0.57944,-3.53514 -1.66015,-4.70703 -1.06773,-1.17185 -2.487,-1.75779 -4.25781,-1.75781 -2.00522,2e-5 -3.61329,0.56643 -4.82422,1.69922 -1.19793,1.13283 -1.88803,2.72788 -2.07032,4.78516 l 12.8125,-0.0195"
         style=""
         id="path8252" />
      <path
         d="m 668.26849,102.28928 c -0.40366,-0.23435 -0.84637,-0.40362 -1.32812,-0.50781 -0.46877,-0.11717 -0.9896,-0.17576 -1.5625,-0.17578 -2.03126,2e-5 -3.59376,0.66408 -4.6875,1.99219 -1.08074,1.31512 -1.6211,3.20965 -1.6211,5.68359 l 0,11.52344 -3.61328,0 0,-21.875001 3.61328,0 0,3.398441 c 0.75521,-1.32811 1.73828,-2.31118 2.94922,-2.949222 1.21093,-0.65102 2.68228,-0.976541 4.41407,-0.976563 0.24738,2.2e-5 0.52081,0.01955 0.82031,0.05859 0.29946,0.02606 0.63149,0.07164 0.99609,0.136719 l 0.0195,3.691402"
         style=""
         id="path8254" />
      <path
         d="m 682.01849,109.80882 c -2.90365,1e-5 -4.91537,0.33204 -6.03515,0.99609 -1.1198,0.66407 -1.6797,1.79688 -1.67969,3.39844 -10e-6,1.27604 0.41666,2.29167 1.25,3.04687 0.84635,0.74219 1.99218,1.11328 3.4375,1.11328 1.99217,0 3.58723,-0.70312 4.78516,-2.10937 1.21092,-1.41927 1.81639,-3.30078 1.8164,-5.64453 l 0,-0.80078 -3.57422,0 m 7.16797,-1.48438 0,12.48047 -3.59375,0 0,-3.32031 c -0.82033,1.32812 -1.84246,2.3112 -3.0664,2.94922 -1.22398,0.62499 -2.72137,0.93749 -4.49219,0.9375 -2.23959,-1e-5 -4.02344,-0.625 -5.35156,-1.875 -1.31511,-1.26302 -1.97266,-2.94922 -1.97266,-5.0586 0,-2.46093 0.82031,-4.31639 2.46094,-5.5664 1.65364,-1.24999 4.11457,-1.87499 7.38281,-1.875 l 5.03906,0 0,-0.35157 c -10e-6,-1.65363 -0.54689,-2.92967 -1.64062,-3.82812 -1.08075,-0.91144 -2.60418,-1.36717 -4.57032,-1.36719 -1.25,2e-5 -2.46745,0.14976 -3.65234,0.44922 -1.1849,0.2995 -2.32422,0.74871 -3.41797,1.34766 l 0,-3.320317 c 1.3151,-0.507792 2.59114,-0.885395 3.82813,-1.132813 1.23697,-0.260394 2.44139,-0.390603 3.61328,-0.390625 3.16405,2.2e-5 5.52733,0.820334 7.08984,2.460935 1.56248,1.64065 2.34373,4.12762 2.34375,7.46094"
         style=""
         id="path8256" />
    </g>
    <g
       style="font-size:40px;font-style:normal;font-weight:normal;text-align:center;line-height:125%;letter-spacing:0px;word-spacing:0px;text-anchor:middle;fill:#000000;fill-opacity:1;stroke:none;font-family:Sans"
       id="text7875-3-6">
      <path
         d="m 487.07111,158.06606 0,-11.83594 3.59375,0 0,30.39062 -3.59375,0 0,-3.28125 c -0.75523,1.30209 -1.71226,2.27214 -2.8711,2.91016 -1.14585,0.625 -2.52605,0.9375 -4.14062,0.9375 -2.64324,0 -4.79819,-1.05469 -6.46485,-3.16406 -1.65365,-2.10937 -2.48047,-4.88281 -2.48047,-8.32032 0,-3.43748 0.82682,-6.21092 2.48047,-8.32031 1.66666,-2.10935 3.82161,-3.16404 6.46485,-3.16406 1.61457,2e-5 2.99477,0.31903 4.14062,0.95703 1.15884,0.62502 2.11587,1.58856 2.8711,2.89063 m -12.2461,7.63671 c 0,2.64324 0.54036,4.72006 1.6211,6.23047 1.09374,1.4974 2.59113,2.2461 4.49218,2.2461 1.90103,0 3.39843,-0.7487 4.49219,-2.2461 1.09373,-1.51041 1.64061,-3.58723 1.64063,-6.23047 -2e-5,-2.64321 -0.5469,-4.71352 -1.64063,-6.21093 -1.09376,-1.5104 -2.59116,-2.26561 -4.49219,-2.26563 -1.90105,2e-5 -3.39844,0.75523 -4.49218,2.26563 -1.08074,1.49741 -1.6211,3.56772 -1.6211,6.21093"
         style=""
         id="path8219" />
      <path
         d="m 516.77814,164.78481 0,1.75781 -16.52344,0 c 0.15624,2.47396 0.89843,4.36198 2.22656,5.66406 1.34114,1.28907 3.20312,1.9336 5.58594,1.93359 1.38019,1e-5 2.71483,-0.16926 4.00391,-0.50781 1.30206,-0.33854 2.59112,-0.84635 3.86718,-1.52344 l 0,3.39844 c -1.28908,0.54688 -2.61069,0.96354 -3.96484,1.25 -1.35418,0.28646 -2.72788,0.42969 -4.12109,0.42969 -3.4896,0 -6.25652,-1.01563 -8.30079,-3.04688 -2.03125,-2.03124 -3.04687,-4.77863 -3.04687,-8.24218 0,-3.58072 0.96354,-6.41926 2.89062,-8.51563 1.9401,-2.10935 4.55078,-3.16404 7.83204,-3.16406 2.94269,2e-5 5.2669,0.95054 6.97265,2.85156 1.71873,1.88804 2.5781,4.45965 2.57813,7.71485 m -3.59375,-1.05469 c -0.0261,-1.96613 -0.57945,-3.53514 -1.66016,-4.70703 -1.06772,-1.17186 -2.48699,-1.7578 -4.25781,-1.75782 -2.00522,2e-5 -3.61329,0.56643 -4.82422,1.69922 -1.19792,1.13283 -1.88803,2.72788 -2.07031,4.78516 l 12.8125,-0.0195"
         style=""
         id="path8221" />
      <path
         d="m 522.67657,146.23012 3.59375,0 0,30.39062 -3.59375,0 0,-30.39062"
         style=""
         id="path8223" />
      <path
         d="m 556.44611,165.62465 c -2.90366,1e-5 -4.91538,0.33204 -6.03516,0.99609 -1.1198,0.66407 -1.67969,1.79689 -1.67969,3.39844 0,1.27605 0.41666,2.29167 1.25,3.04688 0.84635,0.74219 1.99218,1.11328 3.4375,1.11328 1.99218,0 3.58723,-0.70313 4.78516,-2.10938 1.21092,-1.41926 1.81639,-3.30077 1.8164,-5.64453 l 0,-0.80078 -3.57421,0 m 7.16796,-1.48438 0,12.48047 -3.59375,0 0,-3.32031 c -0.82032,1.32813 -1.84246,2.3112 -3.0664,2.94922 -1.22397,0.625 -2.72137,0.9375 -4.49219,0.9375 -2.23959,0 -4.02344,-0.625 -5.35156,-1.875 -1.31511,-1.26302 -1.97266,-2.94922 -1.97266,-5.05859 0,-2.46093 0.82031,-4.3164 2.46094,-5.56641 1.65364,-1.24999 4.11457,-1.87499 7.38281,-1.875 l 5.03906,0 0,-0.35156 c -10e-6,-1.65363 -0.54689,-2.92967 -1.64062,-3.82813 -1.08074,-0.91144 -2.60418,-1.36717 -4.57031,-1.36719 -1.25001,2e-5 -2.46746,0.14976 -3.65235,0.44922 -1.1849,0.2995 -2.32422,0.74872 -3.41797,1.34766 l 0,-3.32031 c 1.3151,-0.50779 2.59114,-0.8854 3.82813,-1.13282 1.23697,-0.26039 2.4414,-0.3906 3.61328,-0.39062 3.16405,2e-5 5.52733,0.82033 7.08984,2.46094 1.56248,1.64064 2.34373,4.12762 2.34375,7.46093"
         style=""
         id="path8225" />
      <path
         d="m 583.71173,158.10512 c -0.40366,-0.23436 -0.84637,-0.40363 -1.32812,-0.50781 -0.46877,-0.11717 -0.9896,-0.17577 -1.5625,-0.17579 -2.03127,2e-5 -3.59376,0.66409 -4.6875,1.99219 -1.08074,1.31512 -1.62111,3.20965 -1.6211,5.6836 l 0,11.52343 -3.61328,0 0,-21.875 3.61328,0 0,3.39844 c 0.7552,-1.3281 1.73827,-2.31118 2.94922,-2.94922 1.21093,-0.65102 2.68228,-0.97654 4.41406,-0.97656 0.24738,2e-5 0.52082,0.0196 0.82032,0.0586 0.29946,0.0261 0.63149,0.0716 0.99609,0.13672 l 0.0195,3.69141"
         style=""
         id="path8227" />
      <path
         d="m 602.40314,155.58559 0,3.35937 c -1.01565,-0.55988 -2.03778,-0.97654 -3.06641,-1.25 -1.01564,-0.28644 -2.04428,-0.42967 -3.08594,-0.42969 -2.33074,2e-5 -4.14063,0.74221 -5.42968,2.22657 -1.28907,1.47137 -1.9336,3.54168 -1.9336,6.21093 0,2.66928 0.64453,4.7461 1.9336,6.23047 1.28905,1.47136 3.09894,2.20704 5.42968,2.20703 1.04166,1e-5 2.0703,-0.13671 3.08594,-0.41015 1.02863,-0.28646 2.05076,-0.70963 3.06641,-1.26953 l 0,3.32031 c -1.00263,0.46875 -2.04429,0.82031 -3.125,1.05469 -1.06773,0.23437 -2.20705,0.35156 -3.41797,0.35156 -3.29428,0 -5.91147,-1.03516 -7.85156,-3.10547 -1.94011,-2.07031 -2.91016,-4.86327 -2.91016,-8.37891 0,-3.56769 0.97656,-6.37368 2.92969,-8.41796 1.96614,-2.04425 4.65494,-3.06639 8.0664,-3.06641 1.10676,2e-5 2.18749,0.11721 3.24219,0.35156 1.05467,0.22138 2.07681,0.55992 3.06641,1.01563"
         style=""
         id="path8229" />
      <path
         d="m 626.87579,163.41762 0,13.20312 -3.59375,0 0,-13.08593 c -1e-5,-2.0703 -0.40366,-3.61978 -1.21093,-4.64844 -0.80731,-1.02863 -2.01825,-1.54295 -3.63282,-1.54297 -1.94011,2e-5 -3.47006,0.61851 -4.58984,1.85547 -1.1198,1.23699 -1.6797,2.92319 -1.67969,5.05859 l 0,12.36328 -3.61328,0 0,-30.39062 3.61328,0 0,11.91406 c 0.85937,-1.31508 1.86848,-2.29816 3.02735,-2.94922 1.17186,-0.65102 2.51951,-0.97654 4.04296,-0.97656 2.51301,2e-5 4.41405,0.78127 5.70313,2.34375 1.28904,1.5495 1.93357,3.83465 1.93359,6.85547"
         style=""
         id="path8231" />
      <path
         d="m 634.08282,154.74574 3.59375,0 0,21.875 -3.59375,0 0,-21.875 m 0,-8.51562 3.59375,0 0,4.55078 -3.59375,0 0,-4.55078"
         style=""
         id="path8233" />
      <path
         d="m 642.59845,154.74574 3.80859,0 6.83594,18.35938 6.83594,-18.35938 3.80859,0 -8.20312,21.875 -4.88282,0 -8.20312,-21.875"
         style=""
         id="path8235" />
      <path
         d="m 677.32501,157.26527 c -1.92709,2e-5 -3.45053,0.75523 -4.57031,2.26563 -1.1198,1.49741 -1.67969,3.5547 -1.67969,6.17187 0,2.6172 0.55338,4.681 1.66016,6.19141 1.11978,1.4974 2.64973,2.2461 4.58984,2.24609 1.91405,1e-5 3.43098,-0.7552 4.55078,-2.26562 1.11978,-1.51041 1.67967,-3.5677 1.67969,-6.17188 -2e-5,-2.59113 -0.55991,-4.64191 -1.67969,-6.15234 -1.1198,-1.52342 -2.63673,-2.28514 -4.55078,-2.28516 m 0,-3.04687 c 3.12499,2e-5 5.57941,1.01565 7.36328,3.04687 1.78384,2.03127 2.67576,4.84377 2.67578,8.4375 -2e-5,3.58074 -0.89194,6.39324 -2.67578,8.4375 -1.78387,2.03125 -4.23829,3.04688 -7.36328,3.04688 -3.13803,0 -5.59896,-1.01563 -7.38281,-3.04688 -1.77084,-2.04426 -2.65625,-4.85676 -2.65625,-8.4375 0,-3.59373 0.88541,-6.40623 2.65625,-8.4375 1.78385,-2.03122 4.24478,-3.04685 7.38281,-3.04687"
         style=""
         id="path8237" />
      <path
         d="m 718.49689,160.89809 c 1.888,0.40366 3.35935,1.2435 4.41406,2.51953 1.06769,1.27605 1.60154,2.85157 1.60156,4.72656 -2e-5,2.87761 -0.9896,5.10417 -2.96875,6.67969 -1.97918,1.57552 -4.79168,2.36328 -8.4375,2.36328 -1.22397,0 -2.48699,-0.1237 -3.78906,-0.37109 -1.28907,-0.23438 -2.6237,-0.59245 -4.00391,-1.07422 l 0,-3.8086 c 1.09375,0.63803 2.29166,1.1198 3.59375,1.44532 1.30208,0.32552 2.66275,0.48828 4.08203,0.48828 2.47395,0 4.35546,-0.48828 5.64454,-1.46485 1.30206,-0.97655 1.9531,-2.39582 1.95312,-4.25781 -2e-5,-1.71874 -0.60549,-3.05988 -1.81641,-4.02344 -1.19793,-0.97655 -2.8711,-1.46483 -5.01953,-1.46484 l -3.39843,0 0,-3.24219 3.55468,0 c 1.94009,2e-5 3.42447,-0.3841 4.45313,-1.15234 1.02863,-0.78123 1.54295,-1.90102 1.54297,-3.35938 -2e-5,-1.49737 -0.53387,-2.6432 -1.60157,-3.4375 -1.0547,-0.80726 -2.57162,-1.21091 -4.55078,-1.21093 -1.08074,2e-5 -2.23959,0.11721 -3.47656,0.35156 -1.23698,0.2344 -2.59766,0.59898 -4.08203,1.09375 l 0,-3.51563 c 1.49739,-0.41664 2.89713,-0.72913 4.19922,-0.9375 1.31509,-0.2083 2.55207,-0.31247 3.71094,-0.3125 2.99477,3e-5 5.36456,0.68363 7.10937,2.05078 1.74477,1.3542 2.61717,3.19013 2.61719,5.50782 -2e-5,1.6146 -0.46226,2.98179 -1.38672,4.10156 -0.9245,1.10679 -2.2396,1.87502 -3.94531,2.30469"
         style=""
         id="path8239" />
    </g>
    <g
       style="font-size:40px;font-style:normal;font-weight:normal;text-align:center;line-height:125%;letter-spacing:0px;word-spacing:0px;text-anchor:middle;fill:#000000;fill-opacity:1;stroke:none;font-family:Sans"
       id="text7881-8-5">
      <path
         d="m 791.80835,122.0898 -5.35156,14.51172 10.72265,0 -5.37109,-14.51172 m -2.22656,-3.88672 4.47265,0 11.11328,29.16016 -4.10156,0 -2.65625,-7.48047 -13.14453,0 -2.65625,7.48047 -4.16016,0 11.13282,-29.16016"
         style=""
         id="path8202" />
      <path
         d="m 821.92554,128.84761 c -0.40366,-0.23436 -0.84637,-0.40363 -1.32813,-0.50781 -0.46876,-0.11717 -0.9896,-0.17576 -1.5625,-0.17578 -2.03126,2e-5 -3.59376,0.66408 -4.6875,1.99218 -1.08073,1.31512 -1.6211,3.20965 -1.62109,5.6836 l 0,11.52344 -3.61328,0 0,-21.875 3.61328,0 0,3.39843 c 0.7552,-1.3281 1.73827,-2.31117 2.94922,-2.94922 1.21092,-0.65102 2.68228,-0.97654 4.41406,-0.97656 0.24738,2e-5 0.52082,0.0196 0.82031,0.0586 0.29947,0.0261 0.6315,0.0716 0.9961,0.13671 l 0.0195,3.69141"
         style=""
         id="path8204" />
      <path
         d="m 840.61694,126.32808 0,3.35937 c -1.01564,-0.55987 -2.03777,-0.97654 -3.0664,-1.25 -1.01564,-0.28643 -2.04429,-0.42966 -3.08594,-0.42968 -2.33074,2e-5 -4.14063,0.7422 -5.42969,2.22656 -1.28907,1.47137 -1.9336,3.54168 -1.93359,6.21094 -10e-6,2.66928 0.64452,4.7461 1.93359,6.23047 1.28906,1.47135 3.09895,2.20703 5.42969,2.20703 1.04165,0 2.0703,-0.13672 3.08594,-0.41016 1.02863,-0.28645 2.05076,-0.70963 3.0664,-1.26953 l 0,3.32031 c -1.00262,0.46875 -2.04428,0.82031 -3.125,1.05469 -1.06772,0.23437 -2.20704,0.35156 -3.41797,0.35156 -3.29428,0 -5.91146,-1.03515 -7.85156,-3.10547 -1.94011,-2.0703 -2.91016,-4.86327 -2.91015,-8.3789 -1e-5,-3.5677 0.97656,-6.37368 2.92968,-8.41797 1.96614,-2.04425 4.65494,-3.06639 8.06641,-3.06641 1.10676,2e-5 2.18748,0.11721 3.24219,0.35156 1.05467,0.22138 2.0768,0.55992 3.0664,1.01563"
         style=""
         id="path8206" />
      <path
         d="m 865.0896,134.16011 0,13.20313 -3.59375,0 0,-13.08594 c -2e-5,-2.0703 -0.40366,-3.61978 -1.21094,-4.64844 -0.80731,-1.02863 -2.01824,-1.54295 -3.63281,-1.54297 -1.94012,2e-5 -3.47006,0.61851 -4.58984,1.85547 -1.1198,1.237 -1.6797,2.92319 -1.67969,5.05859 l 0,12.36329 -3.61328,0 0,-30.39063 3.61328,0 0,11.91406 c 0.85937,-1.31508 1.86848,-2.29815 3.02734,-2.94922 1.17187,-0.65102 2.51952,-0.97654 4.04297,-0.97656 2.513,2e-5 4.41404,0.78127 5.70313,2.34375 1.28904,1.5495 1.93357,3.83465 1.93359,6.85547"
         style=""
         id="path8208" />
      <path
         d="m 872.29663,125.48824 3.59375,0 0,21.875 -3.59375,0 0,-21.875 m 0,-8.51563 3.59375,0 0,4.55078 -3.59375,0 0,-4.55078"
         style=""
         id="path8210" />
      <path
         d="m 880.81226,125.48824 3.80859,0 6.83594,18.35937 6.83593,-18.35937 3.8086,0 -8.20313,21.875 -4.88281,0 -8.20312,-21.875"
         style=""
         id="path8212" />
      <path
         d="m 915.53882,128.00777 c -1.9271,2e-5 -3.45053,0.75522 -4.57031,2.26562 -1.1198,1.49741 -1.6797,3.5547 -1.67969,6.17188 -10e-6,2.61719 0.55338,4.68099 1.66015,6.1914 1.11979,1.4974 2.64973,2.2461 4.58985,2.2461 1.91405,0 3.43097,-0.75521 4.55078,-2.26563 1.11977,-1.51041 1.67967,-3.5677 1.67969,-6.17187 -2e-5,-2.59114 -0.55992,-4.64191 -1.67969,-6.15235 -1.11981,-1.52342 -2.63673,-2.28513 -4.55078,-2.28515 m 0,-3.04688 c 3.12498,2e-5 5.57941,1.01565 7.36328,3.04688 1.78383,2.03126 2.67576,4.84376 2.67578,8.4375 -2e-5,3.58073 -0.89195,6.39323 -2.67578,8.4375 -1.78387,2.03125 -4.2383,3.04687 -7.36328,3.04687 -3.13803,0 -5.59897,-1.01562 -7.38281,-3.04687 -1.77084,-2.04427 -2.65626,-4.85677 -2.65625,-8.4375 -1e-5,-3.59374 0.88541,-6.40624 2.65625,-8.4375 1.78384,-2.03123 4.24478,-3.04686 7.38281,-3.04688"
         style=""
         id="path8214" />
      <path
         d="m 956.71069,131.64058 c 1.88801,0.40366 3.35936,1.2435 4.41407,2.51953 1.06768,1.27605 1.60154,2.85157 1.60156,4.72656 -2e-5,2.87761 -0.98961,5.10417 -2.96875,6.67969 -1.97919,1.57552 -4.79168,2.36328 -8.4375,2.36328 -1.22397,0 -2.48699,-0.1237 -3.78906,-0.37109 -1.28907,-0.23438 -2.62371,-0.59245 -4.00391,-1.07422 l 0,-3.80859 c 1.09375,0.63802 2.29166,1.11979 3.59375,1.44531 1.30207,0.32552 2.66275,0.48828 4.08203,0.48828 2.47395,0 4.35545,-0.48828 5.64453,-1.46484 1.30207,-0.97656 1.95311,-2.39583 1.95313,-4.25782 -2e-5,-1.71874 -0.60549,-3.05988 -1.81641,-4.02343 -1.19793,-0.97655 -2.87111,-1.46483 -5.01953,-1.46485 l -3.39844,0 0,-3.24219 3.55469,0 c 1.94009,2e-5 3.42446,-0.38409 4.45312,-1.15234 1.02863,-0.78123 1.54296,-1.90102 1.54297,-3.35937 -10e-6,-1.49738 -0.53387,-2.64321 -1.60156,-3.4375 -1.0547,-0.80727 -2.57163,-1.21092 -4.55078,-1.21094 -1.08074,2e-5 -2.23959,0.11721 -3.47656,0.35156 -1.23699,0.2344 -2.59766,0.59898 -4.08203,1.09375 l 0,-3.51562 c 1.49739,-0.41664 2.89712,-0.72914 4.19921,-0.9375 1.3151,-0.20831 2.55208,-0.31247 3.71094,-0.3125 2.99478,3e-5 5.36457,0.68362 7.10938,2.05078 1.74477,1.35419 2.61716,3.19013 2.61718,5.50781 -2e-5,1.6146 -0.46226,2.98179 -1.38671,4.10156 -0.9245,1.10679 -2.23961,1.87502 -3.94532,2.30469"
         style=""
         id="path8216" />
    </g>
  </g>
</svg>
